<svg width="129" height="45" viewBox="0 0 129 45" fill="none" xmlns="http://www.w3.org/2000/svg">
<g id="Google_2015_logo 1" clip-path="url(#clip0_362_92376)">
<path id="Vector" d="M54.8176 23.1721C54.8176 29.3912 50.0955 33.974 44.3003 33.974C38.5051 33.974 33.783 29.3912 33.783 23.1721C33.783 16.9091 38.5051 12.3701 44.3003 12.3701C50.0955 12.3701 54.8176 16.9091 54.8176 23.1721ZM50.2136 23.1721C50.2136 19.2857 47.4768 16.6266 44.3003 16.6266C41.1238 16.6266 38.3869 19.2857 38.3869 23.1721C38.3869 27.0195 41.1238 29.7175 44.3003 29.7175C47.4768 29.7175 50.2136 27.0146 50.2136 23.1721Z" fill="#EA4335"/>
<path id="Vector_2" d="M77.5067 23.1721C77.5067 29.3912 72.7845 33.974 66.9894 33.974C61.1942 33.974 56.472 29.3912 56.472 23.1721C56.472 16.9139 61.1942 12.3701 66.9894 12.3701C72.7845 12.3701 77.5067 16.9091 77.5067 23.1721ZM72.9027 23.1721C72.9027 19.2857 70.1658 16.6266 66.9894 16.6266C63.8129 16.6266 61.076 19.2857 61.076 23.1721C61.076 27.0195 63.8129 29.7175 66.9894 29.7175C70.1658 29.7175 72.9027 27.0146 72.9027 23.1721Z" fill="#FBBC05"/>
<path id="Vector_3" d="M99.2504 13.0227V32.4156C99.2504 40.3928 94.6842 43.651 89.2861 43.651C84.2047 43.651 81.1464 40.1493 79.9931 37.2857L84.0015 35.5665C84.7152 37.3247 86.4642 39.3993 89.2814 39.3993C92.7368 39.3993 94.878 37.2029 94.878 33.0682V31.5146H94.7173C93.6869 32.8247 91.7016 33.9691 89.1963 33.9691C83.9542 33.9691 79.1517 29.2646 79.1517 23.211C79.1517 17.1136 83.9542 12.3701 89.1963 12.3701C91.6968 12.3701 93.6821 13.5146 94.7173 14.7857H94.878V13.0276H99.2504V13.0227ZM95.2042 23.211C95.2042 19.4075 92.7415 16.6266 89.6076 16.6266C86.4311 16.6266 83.7698 19.4075 83.7698 23.211C83.7698 26.9756 86.4311 29.7175 89.6076 29.7175C92.7415 29.7175 95.2042 26.9756 95.2042 23.211Z" fill="#4285F4"/>
<path id="Vector_4" d="M106.459 1.65576V33.3116H101.968V1.65576H106.459Z" fill="#34A853"/>
<path id="Vector_5" d="M123.958 26.7272L127.531 29.1818C126.378 30.9399 123.599 33.9691 118.796 33.9691C112.84 33.9691 108.392 29.2256 108.392 23.1672C108.392 16.7435 112.878 12.3652 118.281 12.3652C123.722 12.3652 126.383 16.8263 127.253 19.237L127.73 20.4643L113.715 26.4448C114.788 28.612 116.456 29.7175 118.796 29.7175C121.141 29.7175 122.767 28.5292 123.958 26.7272ZM112.958 22.8409L122.327 18.8328C121.812 17.4837 120.261 16.5438 118.437 16.5438C116.097 16.5438 112.84 18.6721 112.958 22.8409Z" fill="#EA4335"/>
<path id="Vector_6" d="M16.785 20.3621V15.7793H31.774C31.9205 16.578 31.9961 17.5229 31.9961 18.5456C31.9961 21.9839 31.0839 26.2355 28.1437 29.2647C25.284 32.3329 21.6301 33.9693 16.7897 33.9693C7.8181 33.9693 0.273987 26.4401 0.273987 17.1966C0.273987 7.95305 7.8181 0.423828 16.7897 0.423828C21.753 0.423828 25.2887 2.43032 27.9452 5.04558L24.8065 8.27935C22.9016 6.43844 20.3207 5.00662 16.785 5.00662C10.2335 5.00662 5.1096 10.4466 5.1096 17.1966C5.1096 23.9466 10.2335 29.3865 16.785 29.3865C21.0345 29.3865 23.4547 27.6284 25.0051 26.031C26.2624 24.7355 27.0896 22.8849 27.4158 20.3573L16.785 20.3621Z" fill="#4285F4"/>
</g>
<defs>
<clipPath id="clip0_362_92376">
<rect width="128.571" height="44.8052" fill="white" transform="translate(0.103882 0.194824)"/>
</clipPath>
</defs>
</svg>
