<svg width="221" height="44" viewBox="0 0 221 44" fill="none" xmlns="http://www.w3.org/2000/svg">
<g id="Group 11055">
<path id="Star 1" d="M19.8856 5.84404C20.4849 4.00259 23.09 4.00259 23.6892 5.84404L26.2296 13.65C26.4976 14.4736 27.2653 15.0311 28.1314 15.0311L36.3453 15.0311C38.2835 15.0311 39.0886 17.512 37.5197 18.65L30.8799 23.4666C30.1778 23.9758 29.884 24.8796 30.1524 25.7044L32.6899 33.5016C33.2893 35.3437 31.1817 36.8769 29.6137 35.7394L22.9618 30.9141C22.2613 30.406 21.3135 30.406 20.6131 30.9141L13.9612 35.7394C12.3931 36.8769 10.2855 35.3437 10.885 33.5016L13.4224 25.7044C13.6908 24.8796 13.397 23.9758 12.695 23.4666L6.05518 18.65C4.48629 17.512 5.29134 15.0311 7.22954 15.0311L15.4435 15.0311C16.3096 15.0311 17.0773 14.4736 17.3453 13.65L19.8856 5.84404Z" fill="#F6AD01"/>
<path id="Star 2" d="M63.9487 5.70473C64.5558 3.87981 67.1371 3.87981 67.7442 5.70473L70.3914 13.6624C70.6633 14.4797 71.4278 15.0311 72.2891 15.0311L80.7537 15.0311C82.7025 15.0311 83.5005 17.5343 81.9112 18.6622L75.1448 23.4638C74.4273 23.973 74.1268 24.8913 74.4045 25.7261L77.0081 33.5525C77.6183 35.3869 75.5294 36.9336 73.9529 35.8148L67.0039 30.8836C66.3106 30.3917 65.3822 30.3917 64.689 30.8836L57.74 35.8148C56.1634 36.9336 54.0746 35.3869 54.6848 33.5525L57.2883 25.7261C57.566 24.8913 57.2655 23.973 56.548 23.4638L49.7817 18.6622C48.1923 17.5343 48.9903 15.0311 50.9391 15.0311L59.4037 15.0311C60.265 15.0311 61.0296 14.4797 61.3014 13.6624L63.9487 5.70473Z" fill="#F6AD01"/>
<path id="Star 3" d="M108.492 5.70473C109.099 3.87981 111.68 3.87981 112.287 5.70473L114.935 13.6624C115.206 14.4797 115.971 15.0311 116.832 15.0311L125.297 15.0311C127.246 15.0311 128.044 17.5343 126.454 18.6622L119.688 23.4638C118.971 23.973 118.67 24.8913 118.948 25.7261L121.551 33.5525C122.161 35.3869 120.073 36.9336 118.496 35.8148L111.547 30.8836C110.854 30.3917 109.925 30.3917 109.232 30.8836L102.283 35.8148C100.707 36.9336 98.6178 35.3869 99.228 33.5525L101.832 25.7261C102.109 24.8913 101.809 23.973 101.091 23.4638L94.3249 18.6622C92.7356 17.5343 93.5335 15.0311 95.4823 15.0311L103.947 15.0311C104.808 15.0311 105.573 14.4797 105.845 13.6624L108.492 5.70473Z" fill="#F6AD01"/>
<path id="Star 4" d="M153.035 5.70473C153.642 3.87981 156.224 3.87981 156.831 5.70473L159.478 13.6624C159.75 14.4797 160.514 15.0311 161.376 15.0311L169.84 15.0311C171.789 15.0311 172.587 17.5343 170.998 18.6622L164.231 23.4638C163.514 23.973 163.213 24.8913 163.491 25.7261L166.094 33.5525C166.705 35.3869 164.616 36.9336 163.039 35.8148L156.09 30.8836C155.397 30.3917 154.469 30.3917 153.775 30.8836L146.826 35.8148C145.25 36.9336 143.161 35.3869 143.771 33.5525L146.375 25.7261C146.652 24.8913 146.352 23.973 145.634 23.4638L138.868 18.6622C137.279 17.5343 138.077 15.0311 140.026 15.0311L148.49 15.0311C149.351 15.0311 150.116 14.4797 150.388 13.6624L153.035 5.70473Z" fill="#F6AD01"/>
<path id="Star 5" d="M197.09 5.84404C197.689 4.00259 200.294 4.00259 200.894 5.84404L203.434 13.65C203.702 14.4736 204.47 15.0311 205.336 15.0311L213.55 15.0311C215.488 15.0311 216.293 17.512 214.724 18.65L208.084 23.4666C207.382 23.9758 207.088 24.8796 207.357 25.7044L209.894 33.5016C210.494 35.3437 208.386 36.8769 206.818 35.7394L200.166 30.9141C199.466 30.406 198.518 30.406 197.817 30.9141L191.166 35.7394C189.598 36.8769 187.49 35.3437 188.089 33.5016L190.627 25.7044C190.895 24.8796 190.601 23.9758 189.899 23.4666L183.26 18.65C181.691 17.512 182.496 15.0311 184.434 15.0311L192.648 15.0311C193.514 15.0311 194.282 14.4736 194.55 13.65L197.09 5.84404Z" fill="#D9D9D9"/>
</g>
</svg>
