<svg width="54" height="61" viewBox="0 0 54 61" fill="none" xmlns="http://www.w3.org/2000/svg">
<g id="Logo regazza version1">
<path id="Vector" d="M34.5025 42.7903C34.221 42.7903 33.9935 43.0166 33.9935 43.2966C33.9935 43.4065 34.0295 43.5075 34.0886 43.5893C34.3599 43.5152 34.7275 43.5663 34.874 43.519C34.9087 43.5075 34.9524 43.4538 35.0038 43.3695C35.0077 43.3452 35.0115 43.3209 35.0115 43.2953C35.0115 43.0153 34.784 42.7891 34.5025 42.7891V42.7903Z" fill="white"/>
<path id="Vector_2" d="M42.1194 22.5253C42.2878 22.5023 42.4279 22.3988 42.5024 22.2556C42.5384 22.1866 42.5603 22.1098 42.5603 22.0268C42.5603 21.7481 42.3341 21.5218 42.0539 21.5205C42.0539 21.5205 42.0526 21.5205 42.0513 21.5205C42.032 21.5205 42.0127 21.5243 41.9934 21.5269C41.9562 21.5307 41.9189 21.5397 41.8842 21.5512C41.8971 21.8593 41.8701 22.1674 41.8045 22.4678C41.8778 22.5087 41.9613 22.533 42.0513 22.533C42.0744 22.533 42.0976 22.5292 42.1207 22.5266L42.1194 22.5253Z" fill="white"/>
<path id="Vector_3" d="M10.5154 39.4802C10.5154 39.7269 10.7172 39.9276 10.9653 39.9276C11.2134 39.9276 11.4152 39.7269 11.4152 39.4802C11.4152 39.2334 11.2134 39.0327 10.9653 39.0327C10.7172 39.0327 10.5154 39.2334 10.5154 39.4802Z" fill="white"/>
<path id="Vector_4" d="M13.3277 25.1687C13.4819 25.3631 13.7647 25.3963 13.96 25.2429C14.1554 25.0895 14.1888 24.8082 14.0346 24.6139C13.8804 24.4196 13.5976 24.3864 13.4022 24.5398C13.2068 24.6932 13.1734 24.9744 13.3277 25.1687Z" fill="white"/>
<path id="Vector_5" d="M15.8278 38.3384C15.599 38.3384 15.4139 38.571 15.4139 38.8574C15.4139 39.1438 15.599 39.3764 15.8278 39.3764C16.0565 39.3764 16.2416 39.1438 16.2416 38.8574C16.2416 38.571 16.0565 38.3384 15.8278 38.3384Z" fill="white"/>
<path id="Vector_6" d="M15.6593 44.0107C15.338 44.0107 15.0771 44.1948 15.0771 44.4224C15.0771 44.6499 15.338 44.834 15.6593 44.834C15.9807 44.834 16.2416 44.6499 16.2416 44.4224C16.2416 44.1948 15.9807 44.0107 15.6593 44.0107Z" fill="white"/>
<path id="Vector_7" d="M14.2801 39.3759C14.4832 39.3759 14.6477 39.1433 14.6477 38.8569C14.6477 38.5706 14.4832 38.3379 14.2801 38.3379C14.077 38.3379 13.9125 38.5706 13.9125 38.8569C13.9125 39.1433 14.077 39.3759 14.2801 39.3759Z" fill="white"/>
<path id="Vector_8" d="M13.1683 39.8482C13.3328 39.8482 13.4678 39.7152 13.4678 39.5503C13.4678 39.3854 13.3341 39.2524 13.1683 39.2524C13.0025 39.2524 12.8688 39.3854 12.8688 39.5503C12.8688 39.7152 13.0025 39.8482 13.1683 39.8482Z" fill="white"/>
<path id="Vector_9" d="M15.5295 40.5041C15.8303 40.5041 16.0745 40.3571 16.0745 40.1769C16.0745 39.9966 15.8303 39.8496 15.5295 39.8496C15.2288 39.8496 14.9846 39.9966 14.9846 40.1769C14.9846 40.3571 15.2288 40.5041 15.5295 40.5041Z" fill="white"/>
<path id="Vector_10" d="M16.8844 38.1832C16.9396 38.017 16.9833 37.8469 17.0103 37.6731C16.9846 37.6692 16.9589 37.668 16.9332 37.668C16.7211 37.668 16.5502 37.7843 16.5502 37.9275C16.5502 38.0592 16.6967 38.1678 16.8856 38.1832H16.8844Z" fill="white"/>
<path id="Vector_11" d="M17.316 37.9269C17.316 37.8847 17.2993 37.8451 17.2736 37.8105C17.2672 37.8476 17.2621 37.8821 17.2556 37.9218C17.2466 37.9793 17.2364 38.0368 17.2261 38.0931C17.2813 38.0483 17.316 37.9908 17.316 37.9282V37.9269Z" fill="white"/>
<path id="Vector_12" d="M16.8083 39.5723C16.717 39.8139 16.6502 39.9583 16.6502 39.9583C16.6502 39.9583 16.6901 40.0517 16.7672 40.1718C16.861 40.1514 16.933 40.021 16.933 39.8637C16.933 39.7295 16.8816 39.617 16.8096 39.5723H16.8083Z" fill="white"/>
<path id="Vector_13" d="M15.4139 43.3324C15.4139 43.413 15.4794 43.4769 15.5591 43.4769C15.6388 43.4769 15.7044 43.4117 15.7044 43.3324C15.7044 43.2532 15.6388 43.188 15.5591 43.188C15.4794 43.188 15.4139 43.2532 15.4139 43.3324Z" fill="white"/>
<path id="Vector_14" d="M37.2363 36.5455C37.2363 36.8395 37.3867 37.0773 37.5731 37.0773C37.7595 37.0773 37.9098 36.8395 37.9098 36.5455C37.9098 36.2515 37.7595 36.0137 37.5731 36.0137C37.3867 36.0137 37.2363 36.2515 37.2363 36.5455Z" fill="white"/>
<path id="Vector_15" d="M37.5885 37.4028C37.4111 37.4028 37.2659 37.4783 37.2659 37.5703C37.2659 37.6623 37.4098 37.7378 37.5885 37.7378C37.7672 37.7378 37.9111 37.6623 37.9111 37.5703C37.9111 37.4783 37.7672 37.4028 37.5885 37.4028Z" fill="white"/>
<path id="Vector_16" d="M37.3583 37.8848C37.3339 37.8848 37.3121 37.895 37.2902 37.9091C37.2954 37.9091 37.3005 37.9091 37.3044 37.9103C37.3969 37.9244 37.474 37.9819 37.5344 38.074C37.4959 37.9602 37.4316 37.8848 37.3583 37.8848Z" fill="white"/>
<path id="Vector_17" d="M36.3765 37.5718C36.0886 37.5718 35.8547 37.7533 35.8547 37.9757C35.8547 38.1982 36.0886 38.3797 36.3765 38.3797C36.4935 38.3797 36.5989 38.349 36.6863 38.2992C36.6439 38.0895 36.7338 37.9732 36.8907 37.9246C36.8585 37.7252 36.6413 37.5718 36.3765 37.5718Z" fill="white"/>
<path id="Vector_18" d="M34.5371 39.4473C34.2158 39.4473 33.9548 39.6314 33.9548 39.8589C33.9548 40.0865 34.2158 40.2706 34.5371 40.2706C34.6888 40.2706 34.8263 40.2284 34.9304 40.1606C34.9728 40.0839 35.0319 39.9995 35.1104 39.9228C35.1155 39.9024 35.1194 39.8806 35.1194 39.8589C35.1194 39.6314 34.8584 39.4473 34.5371 39.4473Z" fill="white"/>
<path id="Vector_19" d="M33.3263 38.3799C33.0294 38.3799 32.7891 38.6189 32.7891 38.9143C32.7891 39.2096 33.0294 39.4486 33.3263 39.4486C33.6232 39.4486 33.8636 39.2096 33.8636 38.9143C33.8636 38.6189 33.6232 38.3799 33.3263 38.3799Z" fill="white"/>
<path id="Vector_20" d="M31.8161 34.795C31.7107 34.9216 31.7274 35.1082 31.8534 35.2143C31.9807 35.3191 32.1683 35.3025 32.275 35.1772C32.3804 35.0507 32.3637 34.864 32.2377 34.7579C32.1118 34.6518 31.9228 34.6697 31.8161 34.795Z" fill="white"/>
<path id="Vector_21" d="M34.4072 35.9392C34.708 35.9392 34.9522 35.7922 34.9522 35.6119C34.9522 35.4317 34.708 35.2847 34.4072 35.2847C34.1065 35.2847 33.8622 35.4317 33.8622 35.6119C33.8622 35.7922 34.1065 35.9392 34.4072 35.9392Z" fill="white"/>
<path id="Vector_22" d="M36.6606 35.7719C36.8345 35.7719 36.9755 35.6317 36.9755 35.4587C36.9755 35.2857 36.8345 35.1455 36.6606 35.1455C36.4867 35.1455 36.3457 35.2857 36.3457 35.4587C36.3457 35.6317 36.4867 35.7719 36.6606 35.7719Z" fill="white"/>
<path id="Vector_23" d="M37.3469 34.9856C37.4806 34.9856 37.5886 34.8782 37.5886 34.7452C37.5886 34.6123 37.4806 34.5049 37.3469 34.5049C37.2133 34.5049 37.1053 34.6123 37.1053 34.7452C37.1053 34.8782 37.2133 34.9856 37.3469 34.9856Z" fill="white"/>
<path id="Vector_24" d="M35.618 35.6123C35.7234 35.6123 35.8095 35.4729 35.8095 35.299C35.8095 35.1252 35.7234 34.9858 35.618 34.9858C35.5126 34.9858 35.4265 35.1252 35.4265 35.299C35.4265 35.4729 35.5126 35.6123 35.618 35.6123Z" fill="white"/>
<path id="Vector_25" d="M36.5152 36.976C36.6926 36.976 36.8379 36.9044 36.8379 36.8149C36.8379 36.7254 36.6939 36.6538 36.5152 36.6538C36.3366 36.6538 36.1926 36.7254 36.1926 36.8149C36.1926 36.9044 36.3366 36.976 36.5152 36.976Z" fill="white"/>
<path id="Vector_26" d="M34.2916 38.7685C34.2916 38.849 34.3572 38.9129 34.4369 38.9129C34.5166 38.9129 34.5821 38.8477 34.5821 38.7685C34.5821 38.6892 34.5166 38.624 34.4369 38.624C34.3572 38.624 34.2916 38.6892 34.2916 38.7685Z" fill="white"/>
<path id="Vector_27" d="M19.4484 21.5048C19.5345 21.3502 19.4279 21.1264 19.2094 21.0024C19.352 21.138 19.433 21.3169 19.4471 21.5061L19.4484 21.5048Z" fill="white"/>
<path id="Vector_28" d="M18.8586 22.5339C18.9113 22.6694 19.0655 22.7371 19.2018 22.6847C19.2802 22.654 19.3355 22.5901 19.3586 22.516C19.5051 22.4316 19.3162 22.2092 19.2545 22.1414C19.2429 22.1286 19.2352 22.1209 19.2352 22.1209L18.9884 22.0161C18.9884 22.0161 19.0103 22.0903 19.0475 22.1823C19.0668 22.2309 19.09 22.2833 19.117 22.3344C19.0463 22.4137 18.9614 22.4751 18.8522 22.5134C18.8547 22.5198 18.8547 22.5275 18.8573 22.5339H18.8586Z" fill="white"/>
<path id="Vector_29" d="M35.1142 24.1972C35.1567 24.1205 35.1824 24.0425 35.1926 23.9658L34.6824 24.5002C34.8366 24.4976 35.0088 24.3851 35.113 24.1972H35.1142Z" fill="white"/>
<path id="Vector_30" d="M16.8406 34.4678C16.5193 34.4678 16.2584 34.6519 16.2584 34.8794C16.2584 35.107 16.5193 35.2911 16.8406 35.2911C17.162 35.2911 17.4229 35.107 17.4229 34.8794C17.4229 34.6519 17.162 34.4678 16.8406 34.4678Z" fill="white"/>
<path id="Vector_31" d="M15.0771 43.3319C15.1465 43.222 15.5784 42.7388 15.757 42.4728C15.8149 42.3859 15.8457 42.3233 15.829 42.3028C15.7956 42.2619 15.5103 42.028 15.2301 41.8004C15.1054 41.6994 14.982 41.5997 14.8804 41.5192C14.7545 41.4182 14.6915 41.2584 14.7172 41.0999C14.7583 40.8544 14.7313 40.4607 14.2802 40.1372C13.5694 39.6284 12.9434 40.1244 12.8702 40.1756C11.9229 40.8276 12.0578 41.739 12.2956 42.3348C12.473 42.7809 12.9357 43.0558 13.4113 42.9701C13.5745 42.9407 13.7031 42.8922 13.7995 42.8423C13.9511 42.7656 14.1337 42.7873 14.2686 42.8896C14.2956 42.9101 14.3252 42.9318 14.3547 42.9535C14.1041 42.9983 13.9139 43.2156 13.9139 43.4777C13.9139 43.773 14.1542 44.012 14.4511 44.012C14.7481 44.012 14.9884 43.773 14.9884 43.4777C14.9884 43.4278 14.9794 43.3805 14.9666 43.3345C15.0244 43.3549 15.0655 43.3575 15.081 43.3332L15.0771 43.3319Z" fill="white"/>
<path id="Vector_32" d="M31.8263 36.2076C31.9471 36.2076 32.0448 36.1104 32.0448 35.9903C32.0448 35.8701 31.9471 35.7729 31.8263 35.7729C31.7055 35.7729 31.6078 35.8701 31.6078 35.9903C31.6078 36.1104 31.7055 36.2076 31.8263 36.2076Z" fill="white"/>
<path id="Vector_33" d="M33.0602 37.2151C33.0602 37.0182 32.951 36.8584 32.8147 36.8584C32.6785 36.8584 32.5692 37.0182 32.5692 37.2151C32.5692 37.4119 32.6785 37.5717 32.8147 37.5717C32.951 37.5717 33.0602 37.4119 33.0602 37.2151Z" fill="white"/>
<path id="Vector_34" d="M33.5513 38.0956C33.7017 38.0956 33.8225 37.9742 33.8225 37.8259C33.8225 37.6776 33.7004 37.5562 33.5513 37.5562C33.4022 37.5562 33.2801 37.6776 33.2801 37.8259C33.2801 37.9742 33.4022 38.0956 33.5513 38.0956Z" fill="white"/>
<path id="Vector_35" d="M35.4419 36.5234C35.4419 36.425 35.3327 36.3457 35.1964 36.3457C35.0602 36.3457 34.9509 36.425 34.9509 36.5234C34.9509 36.6218 35.0602 36.7011 35.1964 36.7011C35.3327 36.7011 35.4419 36.6218 35.4419 36.5234Z" fill="white"/>
<path id="Vector_36" d="M35.6181 38.3237C35.4831 38.3237 35.3726 38.403 35.3726 38.5014C35.3726 38.5999 35.4818 38.6791 35.6181 38.6791C35.7543 38.6791 35.8636 38.5999 35.8636 38.5014C35.8636 38.403 35.7543 38.3237 35.6181 38.3237Z" fill="white"/>
<path id="Vector_37" d="M33.8225 36.8737C33.9716 36.8737 34.0937 36.6807 34.0937 36.4442C34.0937 36.2077 33.9729 36.0146 33.8225 36.0146C33.6721 36.0146 33.5513 36.2077 33.5513 36.4442C33.5513 36.6807 33.6721 36.8737 33.8225 36.8737Z" fill="white"/>
<path id="Vector_38" d="M38.086 35.8884C38.2357 35.8884 38.3572 35.6961 38.3572 35.4588C38.3572 35.2216 38.2357 35.0293 38.086 35.0293C37.9362 35.0293 37.8148 35.2216 37.8148 35.4588C37.8148 35.6961 37.9362 35.8884 38.086 35.8884Z" fill="white"/>
<path id="Vector_39" d="M32.7891 36.2014C32.9382 36.2014 33.0603 36.0083 33.0603 35.7718C33.0603 35.5353 32.9395 35.3423 32.7891 35.3423C32.6387 35.3423 32.5179 35.5353 32.5179 35.7718C32.5179 36.0083 32.6387 36.2014 32.7891 36.2014Z" fill="white"/>
<path id="Vector_40" d="M34.8083 37.7326C34.9574 37.7326 35.0795 37.5396 35.0795 37.3031C35.0795 37.0666 34.9586 36.8735 34.8083 36.8735C34.6579 36.8735 34.537 37.0666 34.537 37.3031C34.537 37.5396 34.6579 37.7326 34.8083 37.7326Z" fill="white"/>
<path id="Vector_41" d="M35.6489 37.7825C35.6489 37.5729 35.5422 37.4028 35.4098 37.4028C35.2775 37.4028 35.1708 37.5729 35.1708 37.7825C35.1708 37.9922 35.2775 38.1622 35.4098 38.1622C35.5422 38.1622 35.6489 37.9922 35.6489 37.7825Z" fill="white"/>
<path id="Vector_42" d="M36.1978 38.6802C36.0654 38.6802 35.9587 38.8502 35.9587 39.0599C35.9587 39.2695 36.0654 39.4395 36.1978 39.4395C36.3302 39.4395 36.4369 39.2695 36.4369 39.0599C36.4369 38.8502 36.3302 38.6802 36.1978 38.6802Z" fill="white"/>
<path id="Vector_43" d="M31.9407 37.7394C32.1245 37.7394 32.2736 37.5911 32.2736 37.4083C32.2736 37.2254 32.1245 37.0771 31.9407 37.0771C31.7568 37.0771 31.6078 37.2254 31.6078 37.4083C31.6078 37.5911 31.7568 37.7394 31.9407 37.7394Z" fill="white"/>
<path id="Vector_44" d="M40.0409 20.5873C40.2517 20.4428 40.3275 20.191 40.2131 20.0248C40.0974 19.8586 39.8339 19.8407 39.6231 19.9864C39.4123 20.1309 39.3365 20.3827 39.4509 20.5489C39.5666 20.7151 39.8301 20.733 40.0409 20.5873Z" fill="white"/>
<path id="Vector_45" d="M40.5036 21.5866C40.6399 21.7835 40.8468 21.8781 40.9638 21.7963C41.0807 21.7158 41.0653 21.4908 40.9291 21.2939C40.8532 21.184 40.7555 21.1085 40.663 21.0753C40.5897 21.0484 40.5203 21.0484 40.4689 21.0842C40.3699 21.152 40.3661 21.3246 40.4509 21.4946C40.4663 21.5253 40.4831 21.556 40.5049 21.5866H40.5036Z" fill="white"/>
<path id="Vector_46" d="M39.582 23.8506L39.5216 23.6678C39.5216 23.6678 39.6913 23.6269 39.9663 23.586C40.055 23.4633 40.0807 23.329 40.0165 23.2383C39.9226 23.1027 39.672 23.1143 39.4561 23.2625C39.2401 23.4108 39.1424 23.641 39.2363 23.7752C39.2992 23.866 39.4342 23.889 39.5807 23.8506H39.582Z" fill="white"/>
<path id="Vector_47" d="M39.0435 24.2701C39.1117 24.2228 39.0937 24.0809 39.0037 23.9517C38.9137 23.8226 38.7865 23.7562 38.7183 23.8022C38.6502 23.8495 38.6682 23.9914 38.7582 24.1205C38.8482 24.2496 38.9754 24.3161 39.0435 24.2701Z" fill="white"/>
<path id="Vector_48" d="M37.8892 24.4708C37.9496 24.5564 38.1424 24.527 38.3198 24.4056C38.4985 24.2829 38.5936 24.1141 38.5332 24.0272C38.4727 23.9402 38.2799 23.9709 38.1026 24.0924C37.9239 24.2151 37.8288 24.3838 37.8892 24.4695V24.4708Z" fill="white"/>
<path id="Vector_49" d="M38.2351 23.7392C38.3996 23.6267 38.4137 23.3659 38.2685 23.1563C38.1232 22.9466 37.8726 22.8686 37.7081 22.9811C37.5436 23.0936 37.5294 23.3544 37.6747 23.5641C37.8199 23.7738 38.0705 23.8517 38.2351 23.7392Z" fill="white"/>
<path id="Vector_50" d="M39.8045 22.0674C39.6772 22.1543 39.6464 22.3269 39.7338 22.4535C39.8212 22.58 39.9947 22.6107 40.1219 22.5238C40.2492 22.4369 40.28 22.2643 40.1926 22.1377C40.1052 22.0112 39.9317 21.9805 39.8045 22.0674Z" fill="white"/>
<path id="Vector_51" d="M40.7105 22.2591C40.6129 22.3256 40.5884 22.4586 40.6566 22.5557C40.7234 22.6529 40.8571 22.6772 40.9548 22.6094C41.0524 22.5429 41.0769 22.41 41.0087 22.3128C40.9419 22.2157 40.8082 22.1914 40.7105 22.2591Z" fill="white"/>
<path id="Vector_52" d="M40.9239 20.8016C41.0306 20.918 41.1746 20.9614 41.2671 20.8975C41.3519 20.8387 41.3661 20.7083 41.3134 20.5792C41.3005 20.5485 41.2851 20.5178 41.2645 20.4872C41.1579 20.3337 40.9856 20.2673 40.8802 20.3401C40.7748 20.413 40.7761 20.5958 40.8841 20.7492C40.8969 20.7671 40.9111 20.785 40.9252 20.8004L40.9239 20.8016Z" fill="white"/>
<path id="Vector_53" d="M39.6514 21.5968C39.7786 21.5099 39.8378 21.3769 39.7838 21.3002C39.7298 21.2235 39.5846 21.2312 39.4573 21.3194C39.3301 21.4063 39.2709 21.5393 39.3249 21.616C39.3789 21.6927 39.5241 21.685 39.6514 21.5968Z" fill="white"/>
<path id="Vector_54" d="M39.0563 23.1095C39.1219 23.0647 39.1013 22.9241 39.0114 22.795C38.9214 22.6659 38.7954 22.5968 38.7312 22.6416C38.6656 22.6863 38.6862 22.8269 38.7761 22.9561C38.8661 23.0852 38.9921 23.1542 39.0563 23.1095Z" fill="white"/>
<path id="Vector_55" d="M35.9472 23.402C35.9472 23.402 35.9484 23.402 35.9497 23.4007C35.951 23.4007 35.9523 23.4007 35.9536 23.3982C35.9844 23.3777 36.0076 23.3496 36.0269 23.3176C36.0731 23.2435 36.0898 23.1463 36.0744 23.0415L35.7017 23.4327C35.7903 23.4544 35.8765 23.4468 35.9472 23.402Z" fill="white"/>
<path id="Vector_56" d="M3.67211 30.2798C3.52558 30.2083 3.3315 30.1482 3.086 30.1162L3.15926 31.3499C3.33535 31.2847 3.48317 31.2054 3.60528 31.121C3.84692 30.9548 3.9806 30.7669 3.9806 30.6212C3.9806 30.5036 3.87391 30.3796 3.67211 30.2798Z" fill="white"/>
<path id="Vector_57" d="M44.0203 31.3277L44.7838 31.4057L44.4175 30.5581L44.0203 31.3277Z" fill="white"/>
<path id="Vector_58" d="M14.203 30.5581L13.8058 31.3277L14.5693 31.4057L14.203 30.5581Z" fill="white"/>
<path id="Vector_59" d="M31.9329 30.7783C31.9381 30.7719 31.9432 30.7655 31.9471 30.7591C32.0242 30.6504 32.0653 30.552 32.0653 30.4855C32.0653 30.4408 32.0537 30.3986 32.0306 30.3577C31.9342 30.1825 31.6334 30.0253 31.118 29.7734C31.0987 30.0061 31.0846 30.2362 31.0756 30.465C31.0666 30.6837 31.0615 30.8997 31.0615 31.1158V31.3497C31.4818 31.2295 31.7761 30.9879 31.9342 30.7795L31.9329 30.7783Z" fill="white"/>
<path id="Vector_60" d="M26.1953 31.4057L25.829 30.5581L25.4922 31.2101L25.4318 31.3277L25.4665 31.3315L26.1953 31.4057Z" fill="white"/>
<g id="Group 103">
<path id="Vector_61" d="M7.66969 50.8366C7.89205 50.3268 7.92676 49.832 7.77637 49.3534C7.62599 48.8736 7.33293 48.5508 6.8972 48.3825C6.46147 48.2143 6.0116 48.2517 5.54631 48.4947C5.08101 48.7353 4.73783 49.1116 4.51546 49.6214C4.29439 50.1311 4.2584 50.6259 4.40878 51.1045C4.56174 51.5844 4.85479 51.9072 5.28924 52.0754C5.72368 52.2424 6.17355 52.2063 6.64013 51.9657C7.10414 51.724 7.44733 51.3476 7.66969 50.8366ZM6.35479 50.3405C6.27253 50.4539 6.17741 50.5188 6.06687 50.5387C5.95762 50.5611 5.86764 50.5325 5.79438 50.4502C5.72111 50.3679 5.68898 50.2595 5.69541 50.1212C5.70312 49.9841 5.74682 49.8594 5.8278 49.7485C5.90877 49.6376 6.00517 49.5703 6.11443 49.5466C6.22368 49.5267 6.31366 49.5566 6.38563 49.6376C6.45761 49.7186 6.49103 49.8283 6.48461 49.9679C6.47818 50.1037 6.43448 50.2284 6.35222 50.3418L6.35479 50.3405Z" fill="white"/>
<path id="Vector_62" d="M3.94992 45.2307C3.67615 45.1447 3.37281 45.0637 3.03091 44.9951L2.93579 45.9997L3.9782 46.1206C4.01419 45.8364 4.00519 45.541 3.95121 45.2294L3.94992 45.2307Z" fill="white"/>
<path id="Vector_63" d="M2.07594 45.8159L0.439697 46.8741L1.34329 47.6555L3.02709 46.2808C2.73789 46.0515 2.43455 45.9007 2.07594 45.8159Z" fill="white"/>
<path id="Vector_64" d="M49.7787 44.7906C50.0717 44.8255 50.3764 44.8167 50.6977 44.7644C50.7864 44.4989 50.8687 44.2048 50.9406 43.8733L49.9047 43.7798L49.78 44.7906H49.7787Z" fill="white"/>
<path id="Vector_65" d="M49.0023 41.3618L48.1964 42.238L49.6141 43.8707C49.8506 43.5903 50.0062 43.2961 50.0936 42.9484L49.0023 41.3618Z" fill="white"/>
<path id="Vector_66" d="M4.23653 47.6545C4.51159 47.5511 4.74552 47.566 4.93704 47.7019C5.12856 47.8365 5.27251 48.0546 5.37148 48.3537C5.7211 48.1855 6.08099 48.001 6.44988 47.7991C6.18639 46.9541 5.67225 46.4755 4.90748 46.3646C4.1427 46.2524 3.44476 46.4755 2.81109 47.0326C2.1787 47.5897 1.89464 48.1057 1.95891 48.5806C2.02317 49.0554 2.39978 49.6 3.08486 50.2157L4.1774 49.2598C3.80594 48.8647 3.65298 48.5245 3.72111 48.2391C3.78923 47.9536 3.96018 47.758 4.23653 47.6545Z" fill="white"/>
<path id="Vector_67" d="M10.6298 51.178C10.027 51.6815 9.49359 52.0804 9.02701 52.3733C9.24937 51.6691 9.39847 51.1419 9.47302 50.7929C9.18254 50.6022 8.87277 50.4527 8.54501 50.3442C7.74424 51.3737 6.89849 52.3957 6.01031 53.409C6.16841 53.6321 6.48332 53.8938 6.95376 54.1917C7.35864 53.7704 7.76995 53.303 8.18768 52.7895L7.92676 53.7355L8.62213 53.4538L8.91518 53.3292C8.56043 54.1144 8.35606 54.6054 8.30465 54.8024C8.7738 54.8422 9.17097 54.9345 9.49616 55.0778C10.09 53.7916 10.6311 52.6886 11.1208 51.7688C10.9923 51.5694 10.8291 51.3725 10.6298 51.178Z" fill="white"/>
<path id="Vector_68" d="M12.2173 52.5852C11.7507 52.5416 11.3291 52.6999 10.9525 53.0576C10.5746 53.4153 10.3522 53.8677 10.2867 54.4173C10.2198 54.9669 10.3278 55.4518 10.6106 55.8705C10.8947 56.2893 11.27 56.5211 11.7353 56.5647C12.2006 56.6083 12.6221 56.4513 13 56.0936C13.3766 55.7359 13.5977 55.281 13.6646 54.7314C13.7314 54.1817 13.6234 53.6969 13.3407 53.2782C13.0592 52.8581 12.6838 52.6263 12.2173 52.5839V52.5852ZM12.2597 54.6105C12.2134 54.7413 12.1401 54.8298 12.0399 54.8784C11.9422 54.9295 11.8458 54.9258 11.7533 54.8672C11.6594 54.8086 11.5964 54.7127 11.5643 54.5781C11.5322 54.4435 11.5386 54.3126 11.5849 54.1842C11.6312 54.0559 11.7031 53.9649 11.8021 53.9125C11.9011 53.8639 11.9962 53.8677 12.0887 53.9262C12.1813 53.9848 12.2443 54.0808 12.279 54.2166C12.3124 54.3488 12.306 54.4809 12.2597 54.6117V54.6105Z" fill="white"/>
<path id="Vector_69" d="M18.9896 54.9284C17.8366 54.6941 16.8341 54.5333 15.9844 54.4448L15.8083 55.8258L16.55 56.0713C16.4009 56.7493 16.1695 57.4784 15.8559 58.2598C16.1862 58.4106 16.5333 58.6001 16.897 58.8269C17.1464 58.0928 17.3777 57.274 17.5924 56.3692C17.8508 56.4788 18.1734 56.5873 18.5603 56.6969C18.6991 56.3056 18.8418 55.7161 18.9896 54.9272V54.9284Z" fill="white"/>
<path id="Vector_70" d="M20.7301 56.0199C20.743 56.3676 20.7121 56.7266 20.6376 57.0955C20.5617 57.4657 20.3702 57.6264 20.0605 57.5778C19.7507 57.5292 19.6453 57.331 19.7443 56.9808C19.8432 56.6319 19.9923 56.3041 20.1916 56.0012C19.9049 55.6809 19.6633 55.4478 19.4641 55.3008C19.1749 55.5139 18.9139 56.0187 18.6813 56.8126C18.4486 57.6077 18.5155 58.2396 18.8844 58.712C19.2533 59.1831 19.6607 59.4124 20.108 59.3987C20.5553 59.385 20.9088 59.218 21.171 58.8977C21.4332 58.5774 21.6093 58.1499 21.7018 57.614C21.7931 57.0793 21.8484 56.5907 21.8651 56.1508C21.5245 56.0349 21.1479 55.9912 20.7327 56.0187L20.7301 56.0199Z" fill="white"/>
<path id="Vector_71" d="M24.9472 57.9672C24.8919 57.1359 24.915 56.3943 25.0179 55.7425L25.0217 55.6577C24.7158 55.6764 24.2608 55.7799 23.6567 55.9656C23.649 57.2455 23.7004 58.5966 23.8122 60.0199C24.595 59.6422 25.4639 59.469 26.4163 59.4989C26.3636 58.9954 26.3328 58.4732 26.3264 57.936C25.7839 57.8675 25.3238 57.8774 24.9472 57.9672Z" fill="white"/>
<path id="Vector_72" d="M27.0821 55.8408C26.9844 56.8678 26.8404 58.0269 26.6515 59.3181L27.2646 59.4813L27.8546 59.7219C27.8649 59.5736 27.8649 59.2757 27.8546 58.8258L28.6193 58.8183L28.9972 59.6683L30.0962 58.9429C29.5037 57.9434 28.9651 56.9114 28.4818 55.8458L27.0834 55.8408H27.0821ZM27.789 57.7901L27.8032 56.8017L28.2376 57.7888H27.789V57.7901Z" fill="white"/>
<path id="Vector_73" d="M35.419 56.5323C35.383 56.0226 35.1709 55.5639 34.784 55.1564C34.3959 54.75 33.9473 54.5145 33.4357 54.4497C32.9241 54.3836 32.4987 54.5095 32.1607 54.8248C31.8226 55.1401 31.6722 55.5539 31.7082 56.0637C31.7429 56.5747 31.9524 57.0333 32.3406 57.4384C32.7275 57.8447 33.1774 58.0802 33.6902 58.1463C34.1568 58.2036 34.5514 58.1052 34.8714 57.8497L35.7031 58.7321L36.4807 57.5107L35.4049 56.9286C35.4229 56.804 35.428 56.6719 35.419 56.5311V56.5323ZM33.8419 56.4488C33.8187 56.5547 33.7532 56.622 33.6465 56.6532C33.5398 56.6844 33.4229 56.6681 33.2969 56.6046C33.1709 56.541 33.072 56.4513 33.0013 56.3329C32.9306 56.2157 32.9062 56.1023 32.9293 55.9951C32.955 55.8904 33.0205 55.8231 33.1272 55.7932C33.2326 55.7633 33.3496 55.7795 33.4781 55.8418C33.6041 55.9041 33.7018 55.9939 33.775 56.1123C33.847 56.2319 33.8689 56.3429 33.8419 56.4488Z" fill="white"/>
<path id="Vector_74" d="M37.4806 52.8592C37.1387 52.9701 36.8122 53.1595 36.5024 53.4287C36.7325 53.6954 36.9356 53.9971 37.1091 54.3336C37.2839 54.6701 37.2325 54.9119 36.9574 55.0577C36.6824 55.2035 36.4742 55.1088 36.3302 54.7748C36.1875 54.4395 36.0988 54.093 36.0641 53.7341C35.6361 53.6518 35.2968 53.6119 35.0461 53.6144C34.9523 53.9547 35.0654 54.508 35.3842 55.2745C35.703 56.041 36.1567 56.5009 36.7454 56.653C37.3341 56.8063 37.8019 56.744 38.1451 56.4685C38.4896 56.1918 38.6631 55.8491 38.6682 55.4403C38.6721 55.0315 38.541 54.5878 38.2762 54.1105C38.0101 53.6331 37.7454 53.2156 37.4793 52.8579L37.4806 52.8592Z" fill="white"/>
<path id="Vector_75" d="M37.9974 53.1874C38.4215 54.1047 38.9742 54.9409 39.6542 55.695C39.9948 55.3772 40.347 55.1142 40.7094 54.906C40.0938 54.1931 39.5436 53.4154 39.0591 52.5767C38.6632 52.7449 38.3097 52.9493 37.9974 53.1874Z" fill="white"/>
<path id="Vector_76" d="M37.9473 52.73C38.1131 52.6951 38.2532 52.5979 38.3676 52.4383C38.482 52.2776 38.5372 52.1018 38.5334 51.9099C38.5295 51.718 38.4678 51.5659 38.3509 51.455C38.2301 51.3428 38.0874 51.3042 37.9216 51.3391C37.7558 51.374 37.6157 51.4712 37.5013 51.6307C37.3869 51.7915 37.3316 51.9672 37.3355 52.1592C37.3393 52.3511 37.401 52.5032 37.5205 52.6166C37.6401 52.7275 37.7828 52.7649 37.9486 52.73H37.9473Z" fill="white"/>
<path id="Vector_77" d="M38.5524 51.861C39.4689 52.7995 40.2786 53.7591 40.9804 54.7412C41.857 54.5182 42.5794 54.0695 43.1462 53.3952C42.848 53.1198 42.5434 52.8169 42.2311 52.4841C41.839 52.9204 41.4766 53.2108 41.1463 53.3578L41.001 53.1509C41.2992 53.0064 41.6578 52.7122 42.0756 52.2685C41.8648 52.0056 41.6347 51.7388 41.3853 51.4671C40.9599 51.9071 40.6103 52.1888 40.3352 52.3121L40.2144 52.1701C40.5151 51.9682 40.8532 51.6454 41.2298 51.2017C41.0216 50.91 40.8326 50.6321 40.6604 50.3654C40.627 50.3317 40.5936 50.2968 40.5601 50.2632C39.8956 50.9524 39.226 51.4846 38.5511 51.861H38.5524Z" fill="white"/>
<path id="Vector_78" d="M45.4889 50.0809C44.7434 50.1407 44.1984 50.1544 43.8514 50.1208C44.0776 49.4378 44.0018 48.9218 43.6252 48.5716C43.2601 48.2326 42.8064 48.2127 42.264 48.5105C42.264 48.5093 42.2627 48.508 42.2614 48.5068C42.2576 48.5105 42.2537 48.5155 42.2499 48.5193C42.237 48.5267 42.2254 48.5317 42.2126 48.5392C41.647 48.867 41.1766 49.4278 40.8 50.2205C40.8643 50.2865 40.9272 50.3514 40.9902 50.4162C40.9966 50.4087 41.0044 50.4025 41.0108 50.395C41.0365 50.4361 41.0635 50.4772 41.0905 50.5184C42.3591 51.817 43.3373 52.7194 44.0223 53.2266C44.2318 52.7642 44.4632 52.3268 44.7151 51.9143C44.174 51.5927 43.7576 51.3185 43.4658 51.0904C44.1187 51.2113 44.8488 51.2799 45.6599 51.2961C45.575 50.9085 45.5172 50.5047 45.4876 50.0809H45.4889ZM42.6804 50.5134L42.0506 49.9824C42.3784 49.4964 42.6547 49.3381 42.8822 49.5076C43.1097 49.6783 43.0416 50.0136 42.6804 50.5134Z" fill="white"/>
<path id="Vector_79" d="M43.4341 47.4002C44.1128 48.1941 44.8544 49.1139 45.6616 50.1583L46.2143 49.8542L46.8069 49.6199C46.7066 49.5078 46.4894 49.2959 46.1539 48.9855L46.6899 48.4571L47.5768 48.8011L47.8261 47.5348C46.6783 47.2332 45.546 46.8705 44.4277 46.4468L43.4341 47.4002ZM45.6706 47.9885L45.3544 48.2963L44.6449 47.5872L45.6706 47.9885Z" fill="white"/>
<path id="Vector_80" d="M48.3442 43.9157C47.992 43.7151 47.4329 44.084 46.6681 45.02C46.4149 45.2381 46.4084 44.7632 46.6475 43.5979C46.3622 43.4284 46.0254 43.2577 45.6359 43.0869C45.0794 44.8268 45.1475 45.86 45.8416 46.1878C46.5357 46.5156 47.0897 46.3535 47.5023 45.7005C47.8801 45.273 47.8249 45.6693 47.339 46.8907C47.8557 47.0203 48.3686 47.1612 48.8776 47.3132C48.9765 46.4395 48.9997 45.7042 48.9483 45.1085C48.8969 44.5127 48.6951 44.1151 48.3429 43.9145L48.3442 43.9157Z" fill="white"/>
<path id="Vector_81" d="M20.8996 54.1902L19.8495 55.0564L22.4716 54.5878L22.2646 54.2849C21.8058 54.2662 21.3508 54.2351 20.9009 54.189L20.8996 54.1902Z" fill="white"/>
</g>
<g id="Group 102">
<path id="Vector_82" d="M5.74959 11.1206C5.301 10.6527 4.86142 10.1503 4.43211 9.61334C3.84343 9.95595 3.39998 10.3152 3.1005 10.6923C2.39228 9.89587 1.83187 9.13011 1.41927 8.39631L1.35758 8.30811C1.07223 8.55867 0.705908 9.00739 0.257324 9.65425C1.25603 10.9505 2.37042 12.2737 3.59921 13.6237C4.07222 12.6495 4.78944 11.816 5.7483 11.1231L5.74959 11.1206Z" fill="white"/>
<path id="Vector_83" d="M6.37156 10.7946L7.16718 10.7779C7.10292 10.6002 6.94611 10.2512 6.69932 9.73349L7.56435 9.34103L8.4371 10.1426L9.30856 8.74402C8.11319 7.87727 6.9641 6.94404 5.85871 5.94434L4.26746 6.64106C4.69162 7.88749 5.13249 9.31162 5.59007 10.9122L6.37156 10.7946ZM6.59521 8.3311L6.08621 8.55865L5.58621 7.39915L6.59392 8.3311H6.59521Z" fill="white"/>
<path id="Vector_84" d="M13.1851 8.17919C13.0193 7.46329 12.8085 6.70648 12.554 5.9126L13.3779 6.85477L13.5617 5.94072L13.6337 5.55081C14.2211 6.47637 14.6016 7.03502 14.7751 7.22934C15.1453 6.77679 15.5193 6.43546 15.8985 6.20535C14.9448 4.67767 14.1491 3.33408 13.5116 2.17585C13.2108 2.16435 12.8869 2.19247 12.5412 2.25767C12.6568 3.23436 12.7083 4.0666 12.6954 4.75437C12.1016 4.02313 11.6453 3.49388 11.3252 3.16789C10.9203 3.33024 10.545 3.5399 10.2018 3.79813C10.7378 5.35522 11.2353 6.95193 11.6941 8.58699C12.0425 8.58444 12.5386 8.44765 13.1825 8.17919H13.1851Z" fill="white"/>
<path id="Vector_85" d="M19.2828 6.28564C19.1068 5.80752 18.9397 5.29233 18.7803 4.74134C18.0952 5.02387 17.5258 5.1581 17.0733 5.14532L17.0296 4.82828C17.4448 4.827 18.0116 4.68637 18.7301 4.40896C18.6453 3.99221 18.5399 3.56139 18.4165 3.11395C17.6916 3.38369 17.1415 3.51409 16.7649 3.50258L16.7109 3.27375C17.1607 3.20727 17.7224 3.02446 18.3947 2.72404C18.3188 2.20757 18.2597 1.72306 18.2173 1.27051C17.0708 1.70133 16.0104 1.94678 15.0335 2.00814C15.5219 3.5844 15.8767 5.12614 16.1016 6.63592C17.2057 6.8622 18.2661 6.74587 19.2828 6.28692V6.28564Z" fill="white"/>
<path id="Vector_86" d="M20.6273 5.94082C21.3021 6.26809 21.9422 6.23613 22.5437 5.84494C23.1466 5.45376 23.4165 4.92834 23.3535 4.26869C23.2918 3.60903 23.1106 2.83177 22.8098 1.93945C22.2918 1.95863 21.7879 2.05834 21.2969 2.2386C21.4358 2.87652 21.5065 3.3035 21.5065 3.51571C21.5065 3.7292 21.3522 3.82764 21.0399 3.81358C20.7275 3.79951 20.4113 3.62693 20.0913 3.29711C19.7944 3.73815 19.4538 4.12295 19.072 4.45277C19.4332 5.11754 19.9512 5.61355 20.626 5.93954L20.6273 5.94082Z" fill="white"/>
<path id="Vector_87" d="M21.3767 1.61547C21.5798 1.67172 21.7918 1.64231 22.0142 1.52726C22.2366 1.4122 22.4024 1.24473 22.5129 1.02613C22.6235 0.807524 22.6466 0.600425 22.5836 0.406109C22.5181 0.210515 22.3831 0.0839542 22.18 0.0277049C21.9769 -0.0285444 21.7649 0.000858494 21.5425 0.115914C21.3201 0.230969 21.1543 0.398439 21.0438 0.617044C20.9332 0.835649 20.9101 1.04403 20.9731 1.23962C21.0386 1.43394 21.1736 1.55794 21.3754 1.61547H21.3767Z" fill="white"/>
<path id="Vector_88" d="M25.1028 5.50832C25.6555 5.83686 26.2043 5.90078 26.7506 5.70008C27.2968 5.49937 27.6811 5.09284 27.9048 4.47793C28.1259 3.8643 28.1207 3.22255 27.8894 2.55523C27.6567 1.88791 27.266 1.38934 26.7159 1.06079C26.1657 0.729685 25.6169 0.665765 25.0706 0.866473C24.5231 1.06846 24.1387 1.47627 23.9177 2.0899C23.694 2.70352 23.6979 3.344 23.9305 4.01132C24.1632 4.67864 24.5539 5.17721 25.104 5.50704L25.1028 5.50832ZM25.3444 2.61659C25.4279 2.50665 25.5372 2.46063 25.6734 2.47853C25.8097 2.49515 25.9344 2.57313 26.0488 2.70864C26.1606 2.84287 26.2261 2.99755 26.2467 3.17269C26.2673 3.34783 26.2351 3.48974 26.1503 3.5984C26.0693 3.70962 25.9601 3.75692 25.8225 3.7403C25.685 3.72368 25.5603 3.64698 25.4498 3.51019C25.338 3.3734 25.2724 3.21872 25.2531 3.04613C25.2326 2.87355 25.2634 2.73037 25.3444 2.61659Z" fill="white"/>
<path id="Vector_89" d="M30.0849 4.17665C30.4049 4.93474 30.8355 5.73629 31.3753 6.58258C31.7301 6.22208 32.1234 5.87691 32.554 5.54709C31.9769 4.82096 31.5874 4.26869 31.3831 3.88901C32.2687 3.63972 32.7686 3.1974 32.883 2.56204C32.9974 1.92668 32.6851 1.4345 31.946 1.08294C31.2057 0.732658 30.2828 0.643171 29.1774 0.815754C28.59 3.30095 28.2597 5.11499 28.1838 6.25915C28.8214 6.14793 29.4486 6.07762 30.063 6.04566C30.0334 5.26073 30.0399 4.63815 30.0836 4.17665H30.0849ZM30.2918 1.93435C31.0373 1.92796 31.3972 2.10182 31.3715 2.45593C31.3458 2.81005 30.9422 2.97752 30.1581 2.95834L30.2918 1.93435Z" fill="white"/>
<path id="Vector_90" d="M36.8303 6.1564C37.2364 6.27146 37.766 6.2983 38.4215 6.23694C39.077 6.17558 39.5269 5.84575 39.7711 5.24746C40.0153 4.64918 39.8315 4.09691 39.221 3.58939C38.6092 3.08187 37.7454 2.79934 36.6285 2.73926C35.5372 5.04931 34.8354 6.75597 34.5244 7.8605C35.1722 7.88351 35.7994 7.94232 36.4074 8.03947C36.5462 7.23153 36.6876 6.60256 36.8303 6.15512V6.1564ZM37.4845 4.06495C38.2146 4.21197 38.5308 4.45614 38.4318 4.79747C38.3328 5.1388 37.9022 5.21934 37.14 5.03909L37.4832 4.06495H37.4845Z" fill="white"/>
<path id="Vector_91" d="M41.1748 5.99037C41.4228 6.01977 41.6555 5.97503 41.8701 5.85614C42.0861 5.73724 42.2223 5.58 42.2802 5.38441C42.3367 5.18626 42.2982 5.006 42.1632 4.8462C42.0282 4.68513 41.8354 4.59053 41.5874 4.56112C41.3393 4.53172 41.1066 4.57519 40.892 4.69408C40.6761 4.81297 40.5398 4.97149 40.4807 5.16836C40.4254 5.36523 40.464 5.54421 40.6002 5.70401C40.7352 5.86508 40.928 5.95968 41.176 5.98909L41.1748 5.99037Z" fill="white"/>
<path id="Vector_92" d="M39.7377 10.0234C40.1889 8.92523 40.7506 7.86033 41.4215 6.82867C41 6.49628 40.5629 6.23038 40.1118 6.03223C39.3174 7.04344 38.6902 8.14669 38.23 9.33943C38.7892 9.52224 39.2917 9.75107 39.739 10.0234H39.7377Z" fill="white"/>
<path id="Vector_93" d="M42.9395 8.45903C42.2287 8.76968 41.1156 9.3782 39.5976 10.2871L39.5745 10.3204C40.8418 10.6719 42.0115 11.2792 43.0834 12.1434C43.5603 11.6371 44.104 11.1398 44.712 10.6489C44.3084 10.2935 43.8585 9.99694 43.3598 9.7566L46.5963 8.28517C45.3649 7.32126 44.0937 6.56829 42.7827 6.02881C42.3726 6.36503 41.9176 6.92496 41.4189 7.70734C42.0217 7.9579 42.5282 8.20847 42.9395 8.46031V8.45903Z" fill="white"/>
<path id="Vector_94" d="M45.4008 10.5145C45.9612 10.8481 46.4278 11.169 46.798 11.4758C46.0499 11.6816 44.8597 12.1265 43.2273 12.8105L43.199 12.8399C44.4034 13.3678 45.4741 14.1349 46.4098 15.1423C46.9548 14.7102 47.5641 14.2934 48.2363 13.8958C47.888 13.4867 47.4844 13.1288 47.0268 12.8194L50.4406 11.8223C49.361 10.6922 48.2106 9.76789 46.9908 9.04688C46.5371 9.32173 46.0062 9.81135 45.3995 10.5145H45.4008Z" fill="white"/>
<path id="Vector_95" d="M47.1683 15.8459L47.293 16.6283C47.4614 16.5401 47.7879 16.3394 48.2699 16.0261L48.7789 16.8251L48.0977 17.7942L49.6092 18.464C50.311 17.169 51.0861 15.9098 51.9331 14.6864L51.0231 13.2124C49.838 13.7992 48.4794 14.4256 46.946 15.0929L47.1683 15.8472V15.8459ZM50.446 14.6148L49.6542 15.7347L49.3599 15.2642L50.4473 14.6161L50.446 14.6148Z" fill="white"/>
</g>
<path id="Vector_96" d="M36.0757 23.0425L36.1939 22.9185L36.0757 23.0348C36.0757 23.0348 36.0757 23.0386 36.0757 23.0412V23.0425Z" fill="#00977E"/>
<path id="Vector_97" d="M35.4586 22.644L35.3468 22.7501L35.5152 22.6568L35.4586 22.644Z" fill="#00977E"/>
<path id="Vector_98" d="M34.537 23.2065L33.3481 27.7115C33.3275 27.8023 33.154 28.499 33.0602 28.499L32.7684 27.8675C32.636 27.8675 32.2401 28.6115 32.2735 28.485L33.483 24.1269C33.492 24.0937 33.4663 23.3471 33.4908 23.3228L33.8995 23.6552C34.0409 23.5069 34.5833 23.0071 34.5383 23.2065H34.537Z" fill="white"/>
<path id="Vector_99" d="M34.4241 19.1756C34.4241 19.1756 35.0308 19.6896 34.1902 22.3371L34.4755 22.4253L35.4421 18.0123L34.8161 17.561" fill="white"/>
<path id="Vector_100" d="M49.8584 27.8677C49.6656 25.1255 48.6823 19.9902 44.3224 15.4865L42.1502 17.211C42.9419 17.6009 45.2286 18.9688 45.6887 21.9909C46.1232 24.8481 46.8661 26.6801 47.2787 27.8677L45.9265 27.7897C45.5011 26.5676 44.9959 25.1243 44.5448 22.1622C44.1617 19.6464 41.8288 18.3398 41.145 18.0075L40.0448 18.8806L36.1913 22.919L38.3301 20.8071L38.388 20.7496C38.3983 20.7739 38.4085 20.7995 38.4227 20.8238C38.4368 20.8506 38.4522 20.8762 38.4702 20.9017C38.6219 21.1203 38.8533 21.2226 38.9857 21.1318C39.1181 21.0398 39.1039 20.7892 38.951 20.5706C38.9227 20.531 38.8918 20.4965 38.861 20.4645C38.8443 20.4479 38.8289 20.4326 38.8109 20.4185C38.7942 20.4044 38.7774 20.3917 38.7607 20.3802L40.1553 19.0033L40.2517 18.9074L40.3854 18.7758C40.3854 18.7758 40.3854 18.7758 40.3867 18.7758C40.7093 19.0084 40.9985 19.2986 41.2389 19.6438C41.4252 19.9123 41.5692 20.1961 41.6746 20.4888C41.7247 20.4837 41.7749 20.4811 41.8263 20.4811C41.8366 20.4811 41.8468 20.4824 41.8571 20.4824C42.2761 20.4914 42.6489 20.678 42.9072 20.9695C42.9985 21.1203 43.0923 21.2801 43.1887 21.4502C43.2389 21.5959 43.2684 21.7519 43.2684 21.9155C43.2684 22.3016 43.1142 22.6519 42.8648 22.9088C42.69 23.0903 42.4664 23.2246 42.2157 23.2949C42.0923 23.3294 41.9612 23.3499 41.8263 23.3499C41.7967 23.3499 41.7671 23.3473 41.7389 23.346C41.7389 23.3499 41.7389 23.3537 41.7389 23.3575C41.8006 23.4023 41.8507 23.4662 41.8803 23.5582C41.8828 23.5672 41.8841 23.5761 41.8867 23.5851C42.0114 23.6068 42.1373 23.6324 42.2607 23.6643C42.7209 23.7845 43.1695 23.9903 43.5461 24.3227C43.9188 24.6525 44.2209 25.1051 44.388 25.729C44.5319 26.2697 44.5846 26.7938 44.5718 27.2911C44.5666 27.4867 44.5512 27.6798 44.5255 27.8664H43.5293C43.4805 27.4126 43.3674 26.8936 43.172 26.3004C42.9728 25.6957 42.7106 25.247 42.4201 24.9121C42.2402 24.705 42.0499 24.5413 41.8545 24.4135C41.7183 24.324 41.5808 24.2524 41.4445 24.1949C41.343 24.1527 41.2427 24.1182 41.145 24.0913C41.0988 24.0785 41.0525 24.067 41.0075 24.0568C40.8558 24.0236 40.7093 24.0044 40.5718 23.9955C40.0654 23.9635 39.69 24.0709 39.654 24.0824C39.6528 24.0824 39.6489 24.0837 39.6489 24.0837L39.87 24.7433L39.9253 24.9082L40.1682 25.6343L40.3468 26.1687L40.915 27.8664H40.8918L40.3417 26.1828C40.2273 26.4564 40.1013 26.7005 39.9651 26.8706C39.9651 26.8706 39.6926 27.0559 39.6965 27.3627C39.7312 27.4522 39.7582 27.5455 39.7736 27.6427C39.8083 27.7066 39.8546 27.7744 39.9175 27.8447C39.924 27.8524 39.9291 27.8588 39.9355 27.8651H39.0666C39.0101 27.6465 38.8121 27.4842 38.5756 27.4842C38.4278 27.4842 38.2967 27.5468 38.2042 27.6465C38.1476 27.7066 38.1065 27.782 38.0846 27.8639H36.9137C36.9163 27.6223 36.9793 27.3947 37.0872 27.1965C37.3314 26.7504 37.807 26.4474 38.3546 26.4474C38.834 26.4474 39.2582 26.6814 39.5204 27.0406C39.5885 26.836 39.6823 26.6225 39.8083 26.4091C39.9574 26.1572 40.0731 25.8977 40.1656 25.642L39.9253 24.9069C38.478 25.6574 36.6978 25.3493 35.5898 24.1642C35.1541 24.8699 34.5101 25.3761 33.7813 25.651C33.6849 25.6868 33.5872 25.72 33.487 25.7481C33.3777 25.7788 33.2685 25.8044 33.1566 25.8248C33.1014 26.0703 33.0461 26.3132 32.9921 26.5497C33.2055 26.2646 33.46 26.0243 33.7003 25.8325C34.1207 25.4963 34.4921 25.3122 34.4921 25.3122L34.6168 25.6126C34.5924 25.6228 34.3404 25.7366 34.0757 25.9833C33.7093 26.3247 33.3237 26.9242 33.4908 27.8626H33.3096L32.7171 27.7578C32.7094 27.7923 32.7016 27.8281 32.6926 27.8626H32.4908L31.2916 27.5941C31.2916 27.5941 31.2916 27.5877 31.2929 27.5852C31.298 27.5596 31.3032 27.534 31.3083 27.5085C31.3867 27.1135 31.4831 26.7108 31.5924 26.326C31.6425 26.1495 31.6965 25.977 31.7531 25.8095C32.1374 24.6819 32.6566 23.842 33.2608 24.0619C33.2878 24.0722 33.316 24.0837 33.343 24.0977C33.3469 24.1003 33.3494 24.1028 33.3533 24.1041C33.3944 24.1258 33.4317 24.1501 33.4664 24.177C33.4844 24.191 33.5011 24.2064 33.5165 24.2217C33.46 24.4748 33.4021 24.7267 33.3456 24.9785C33.5024 25.0437 33.6772 25.0182 33.8083 24.9223L33.9921 24.457C33.9883 24.4339 33.9831 24.4109 33.9754 24.3892L34.0075 24.416L34.1104 24.1565C34.0795 23.975 34.0178 23.8011 33.8944 23.8241C33.7402 23.8535 33.7788 24.0415 33.8289 24.1783C33.807 24.1604 33.7839 24.1437 33.7582 24.1297C33.6926 24.0926 33.6207 24.076 33.55 24.0722C33.5294 24.0722 33.5101 24.0696 33.4908 24.0722L33.568 23.7436L33.6335 23.7065L33.7672 23.6311C33.7698 23.6733 33.7916 23.7129 33.8315 23.7347C33.8944 23.7692 33.9728 23.7462 34.0075 23.6848C34.0397 23.6273 34.0204 23.5557 33.9677 23.5186L35.343 22.7452L35.4548 22.6378L34.4715 22.4179L33.9497 22.3016C33.9458 22.3156 33.9433 22.331 33.9394 22.345L33.8957 22.3348L32.7762 22.0843C32.7788 22.0689 32.7813 22.0548 32.7852 22.0408C32.9073 21.4131 33.0397 20.8391 33.1926 20.3674C33.2479 20.1961 33.307 20.0375 33.3687 19.8969C33.5834 19.4035 33.8392 19.1069 34.1579 19.1069C34.1978 19.1069 34.2402 19.112 34.2826 19.1209C34.3276 19.1312 34.3726 19.1465 34.4201 19.1682C34.4844 19.1976 34.5358 19.2449 34.5795 19.3025L34.8224 18.2158L36.3006 17.3849L35.0718 17.11L33.4857 16.6728L34.3816 13.101L35.1733 13.2979L35.3469 12.605L34.3507 12.3621L32.6824 11.9568L23.2492 9.66211L22.9883 10.2681L27.0616 11.2806L23.6734 10.4675L23.5243 11.9466C13.9704 12.3276 6.07709 19.0084 4.06296 27.8588H0V34.0551H3.64008C4.48198 43.7696 12.2827 51.5423 22.1451 52.5752C22.595 52.6225 23.05 52.6545 23.5089 52.6736C23.7994 52.6851 24.0924 52.6928 24.3855 52.6928C35.2852 52.6928 44.226 44.4958 45.1309 34.0551H51.4419V27.8588H49.8532L49.8584 27.8677ZM40.4175 26.0012L40.2337 25.4528L40.0332 24.8533L39.9664 24.6525C39.9664 24.6525 40.1605 24.5925 40.4458 24.5835C40.4484 24.5835 40.4522 24.5835 40.4548 24.5835C40.5371 24.581 40.6258 24.5835 40.7209 24.5937C40.7723 24.5989 40.825 24.6052 40.879 24.6155C40.9278 24.6244 40.9767 24.6359 41.0268 24.6487C41.1772 24.6871 41.3327 24.7471 41.4869 24.8341C41.5216 24.8545 41.5576 24.8763 41.5923 24.8993C41.6476 24.9351 41.7016 24.9747 41.7556 25.0194C41.8648 25.1089 41.9702 25.2163 42.0718 25.3442C42.1013 25.3812 42.1296 25.4196 42.1592 25.4605C42.2106 25.5346 42.2594 25.6139 42.307 25.6995C42.3623 25.7993 42.4137 25.9079 42.4612 26.0243C42.4959 26.1074 42.5281 26.193 42.5589 26.2838C42.5705 26.3208 42.5821 26.3554 42.5923 26.3912C42.6026 26.4231 42.6129 26.4551 42.6219 26.487C42.6437 26.5612 42.6643 26.6341 42.6836 26.7056C42.7234 26.8591 42.7543 27.0035 42.7787 27.1429C42.8006 27.2681 42.816 27.387 42.8263 27.4995C42.8378 27.6261 42.8417 27.7463 42.8404 27.8588C42.8404 27.8613 42.8404 27.8651 42.8404 27.8677H41.0409L40.4163 26.0012H40.4175ZM39.0178 29.3046C39.6772 29.3251 40.1425 29.3353 40.4201 29.3353C40.4754 29.3353 40.5319 29.3353 40.5911 29.3353C40.825 29.3327 41.0846 29.3263 41.37 29.3187C41.3815 29.3187 41.3931 29.3187 41.4047 29.3187C41.4445 29.3187 41.4857 29.3161 41.5281 29.3148C41.717 29.3097 41.9162 29.3033 42.1258 29.2969C42.1463 29.2969 42.1656 29.2969 42.1849 29.2957L42.2042 29.3506L42.2157 29.3839C42.1913 29.4171 42.1669 29.4504 42.1425 29.4849C41.9818 29.7048 41.8276 29.9246 41.6797 30.142C41.6707 30.156 41.6617 30.1688 41.6527 30.1829C41.2839 30.7287 40.9548 31.2682 40.6618 31.8052C40.7453 31.8052 40.8288 31.8103 40.9124 31.8103C41.1643 31.8103 41.4188 31.7962 41.6772 31.7706C41.8276 31.7553 41.9779 31.7374 42.1296 31.7131C42.1566 31.7093 42.1836 31.7054 42.2106 31.7016L42.0846 32.1759L41.8918 32.9033C41.6887 32.8956 41.5024 32.8892 41.3301 32.8828C40.9214 32.8688 40.5988 32.8611 40.3636 32.8611C40.0281 32.8611 39.5049 32.8764 38.8044 32.9033L38.7672 32.8202C39.2903 31.9828 39.7929 31.1596 40.2736 30.3427C40.0435 30.3516 39.816 30.367 39.5885 30.3874C39.289 30.4143 38.9895 30.4488 38.6888 30.4935L39.0178 29.3072V29.3046ZM36.0358 29.3263C36.0679 29.3263 36.1001 29.3276 36.1309 29.3289C36.1399 29.3289 36.1476 29.3289 36.1566 29.3289C36.3559 29.3327 36.5191 29.3353 36.6425 29.3353C36.8353 29.3353 37.0512 29.3315 37.2839 29.3263C37.5474 29.32 37.8353 29.311 38.1476 29.3021C38.2325 29.2995 38.3186 29.2969 38.406 29.2944L38.4137 29.3161L38.4368 29.3826C38.1322 29.7942 37.852 30.2008 37.5936 30.6047C37.3353 31.0062 37.1001 31.405 36.8829 31.8026C36.9664 31.8026 37.0499 31.8077 37.1335 31.8077C37.5577 31.8077 37.9921 31.7706 38.4317 31.6978L38.1129 32.8995C37.4278 32.8739 36.9201 32.8573 36.5847 32.8573C36.5551 32.8573 36.523 32.8573 36.4908 32.8573C36.1553 32.8598 35.6656 32.8752 35.0255 32.8982L34.9883 32.8151C35.0358 32.7384 35.0834 32.6617 35.1309 32.585C35.4278 32.1069 35.7183 31.6338 36.0024 31.1634C36.1026 30.9972 36.2016 30.8323 36.2993 30.6661C36.3649 30.5562 36.4304 30.4462 36.4947 30.3376C36.032 30.3555 35.5769 30.3989 35.1194 30.4603C35.05 30.4692 34.9793 30.4782 34.9099 30.4884L34.9484 30.3503L35.1219 29.7239L35.1348 29.6792L35.1579 29.5948L35.2402 29.3008C35.5474 29.311 35.8109 29.3174 36.0358 29.3225V29.3263ZM34.9111 26.3234L35.5512 27.8677H35.5371L34.9099 26.3234L34.8173 26.0958L34.9124 26.3247L34.9111 26.3234ZM33.8816 27.1569C33.897 27.0738 33.9176 26.9958 33.9446 26.923C33.9895 26.799 34.0487 26.6903 34.1155 26.5957C34.1631 26.5292 34.2119 26.4704 34.2633 26.418C34.3662 26.3119 34.4715 26.2326 34.5551 26.1802C34.6528 26.1176 34.7209 26.0895 34.7209 26.0895L34.798 26.2787L35.4446 27.869H33.9163C33.9111 27.8485 33.9073 27.8281 33.9021 27.8089C33.879 27.6977 33.8662 27.5928 33.8623 27.4944C33.8572 27.3742 33.8649 27.2617 33.8841 27.1582L33.8816 27.1569ZM34.0487 29.2893H34.6386C34.6091 29.5334 34.5847 29.7725 34.5628 30.009C34.5422 30.2353 34.5255 30.4577 34.514 30.6776C34.4985 30.9589 34.487 31.2375 34.487 31.5111C34.487 31.8793 34.5037 32.2449 34.5345 32.6118C34.5422 32.7064 34.55 32.7997 34.5602 32.8956C34.2518 32.8905 34.068 32.8905 34.0165 32.8905C33.9381 32.8905 33.744 32.8905 33.442 32.8943C33.4214 32.8943 33.4009 32.8943 33.3777 32.8943C33.3983 32.3114 33.4137 31.8115 33.4137 31.3961C33.4137 30.9 33.3906 30.3567 33.361 29.7699C33.3533 29.6127 33.3443 29.4529 33.3353 29.288H34.0487V29.2893ZM31.7029 29.3097C31.8932 29.3276 32.0371 29.3506 32.2351 29.481C32.2595 29.4964 32.2839 29.5155 32.3096 29.5347C32.3173 29.5398 32.3237 29.545 32.3315 29.5501C32.7556 29.8722 32.9908 30.2263 32.9908 30.482C32.9908 30.9665 32.7286 31.5073 32.4356 31.7732C32.2659 31.9266 32.0333 31.9662 31.6541 31.9701C31.6348 31.9701 31.6181 31.9701 31.5988 31.9701C31.442 31.9701 31.2698 31.9598 31.0808 31.9394V32.0378C31.0808 32.3076 31.1001 32.5722 31.1399 32.8355C31.1438 32.8573 31.1451 32.879 31.1489 32.9007C30.8816 32.9007 30.6785 32.8956 30.5371 32.8956C30.4793 32.8956 30.2749 32.9007 29.9253 32.9058C29.9279 32.8841 29.9292 32.8637 29.9304 32.8419C29.9382 32.7576 29.9446 32.6745 29.951 32.5914C29.9973 32.0276 30.0243 31.5073 30.0243 31.0368C30.0243 30.7236 30.0114 30.4002 29.9896 30.064C29.9741 29.8121 29.9536 29.5552 29.9292 29.288H30.834C31.3366 29.288 31.6297 29.3033 31.7029 29.3084V29.3097ZM17.8919 35.7068C17.703 35.7337 17.5102 35.7477 17.3135 35.7477C15.9498 35.7477 14.7429 35.0842 13.9986 34.0641H15.1092C15.1683 34.2955 15.3765 34.4668 15.6272 34.4668C15.8778 34.4668 16.0873 34.2955 16.1452 34.0641H18.3328L18.2184 34.9078L17.4189 34.7455L17.8907 35.7068H17.8919ZM12.0411 39.3847C12.0411 40.084 11.4704 40.6516 10.7673 40.6516C10.0642 40.6516 9.49353 40.084 9.49353 39.3847C9.49353 38.8593 9.81486 38.4093 10.2724 38.2176C10.2352 38.2035 10.1979 38.1882 10.1632 38.169C9.66062 37.8903 9.07965 37.2984 9.51795 36.1095C9.55265 36.0175 9.80844 35.1814 10.6529 35.0472C11.1889 34.9615 11.4151 35.2415 11.5077 35.4575C11.5681 35.5969 11.703 35.671 11.8573 35.6557C12.2634 35.6148 12.9678 35.547 13.0385 35.556C13.1388 35.5687 12.9562 36.7103 12.9549 36.888C12.9549 37.0069 12.4177 37.0977 12.0629 37.1463C11.8997 37.168 11.739 37.2856 11.6542 37.4544C11.6002 37.5618 11.5205 37.6934 11.4023 37.8353C11.2904 37.9696 11.1593 38.0731 11.0218 38.146C11.6028 38.2636 12.0398 38.7749 12.0398 39.3873L12.0411 39.3847ZM18.4729 22.5585C18.3534 22.5521 18.2171 22.5304 18.0565 22.4921C17.9871 22.4754 17.077 22.6161 17.0063 21.9296C16.9614 21.4936 17.1824 21.2699 17.3495 21.1651C17.4575 21.0973 17.5192 20.9759 17.5128 20.848C17.4973 20.5144 17.4716 19.9366 17.4806 19.8765C17.4896 19.8177 17.9138 19.8036 18.2146 19.7921C18.2878 19.5607 18.3842 19.3344 18.5076 19.1145C18.9755 18.2759 19.73 17.6955 20.5822 17.4258L20.4511 18.3935C20.3405 18.4114 20.2146 18.5124 20.131 18.6633C20.014 18.8729 20.0205 19.0979 20.1451 19.167C20.203 19.1989 20.275 19.19 20.3482 19.1529L20.3328 19.2667L19.5385 19.089C19.5847 19.0545 19.6284 19.0059 19.6619 18.9458C19.7531 18.7822 19.7364 18.5994 19.6246 18.538C19.5128 18.4766 19.3482 18.5584 19.257 18.7221C19.2004 18.8231 19.185 18.9317 19.2094 19.0148L19.1619 19.0046L19.5475 19.7039C19.4433 19.7218 19.3547 19.7768 19.3058 19.8637C19.2068 20.0401 19.3084 20.283 19.532 20.407C19.676 20.4863 19.8341 20.4965 19.9562 20.4466L20.1156 20.7368L20.1349 20.7407L19.7698 23.4406V23.447L18.8534 23.1351L15.8251 22.1021L15.4704 21.9807C15.4382 22.1034 15.4112 22.2364 15.3971 22.3757C15.3624 22.7043 15.3971 23.0737 15.5796 23.4496C15.7081 23.7129 15.9125 23.9801 16.2197 24.2358C16.6053 24.5579 17.1516 24.8635 17.9189 25.1294C18.0603 25.178 18.1953 25.2163 18.3251 25.247L18.9511 26.395C18.568 26.4512 18.1452 26.4091 17.685 26.2199C17.2351 26.0345 16.847 25.7941 16.5141 25.5218C16.5385 26.2774 16.2763 26.8194 15.9819 26.7977C15.5449 26.767 15.2377 26.5343 15.9048 25.9297C16.1799 25.6816 16.2441 25.4503 16.2261 25.2623C14.9832 24.053 14.667 22.3757 14.8418 21.7212L15.311 21.8848C15.2724 21.6982 15.2339 21.5742 15.1914 21.5473C14.9935 21.4259 14.1426 21.4451 14.4279 20.8365C14.7133 20.2293 15.6053 20.756 15.7416 21.1779C15.7956 21.3428 15.802 21.6611 15.8238 22.0638L18.8392 23.1146C18.7004 22.9395 18.5783 22.7529 18.4755 22.5585H18.4729ZM25.2981 29.2727H26.1194L26.6181 30.2647L27.5397 32.0966L27.7029 32.4226L27.9189 32.8534L26.595 32.9212L26.3443 32.2296C26.077 32.2194 25.8739 32.2142 25.7325 32.2142C25.6066 32.2142 25.4086 32.2194 25.1413 32.2296L24.906 32.9161L23.6863 32.8688C23.8405 32.5568 23.9909 32.2436 24.1387 31.9292C24.2145 31.7694 24.2865 31.607 24.3611 31.4459C24.6875 30.7313 24.9999 30.009 25.2981 29.2727ZM24.46 26.3017C24.8161 24.4416 25.0667 22.3655 26.0179 22.795C26.5217 23.0226 26.3636 24.402 26.1605 25.4605C26.0693 25.9348 25.969 26.3451 25.9138 26.5586L25.5551 26.4947L24.46 26.3004V26.3017ZM28.4703 23.0737C28.7107 23.1057 28.888 23.1913 29.0153 23.3166C29.1785 23.4764 29.2569 23.7001 29.2801 23.9597C29.3777 25.0846 28.3906 26.8744 28.3289 26.9856L28.1464 26.9537L26.8932 26.6737C27.2582 24.7906 27.4163 22.9318 28.469 23.0737H28.4703ZM28.2981 21.0449C28.6618 19.19 29.1078 17.8055 29.9304 18.1826C30.0127 18.2197 30.0757 18.2823 30.1232 18.3628C30.2672 18.6032 30.2749 19.0123 30.2184 19.4546C30.1927 19.654 30.1554 19.8598 30.1104 20.0606C30.0821 20.1871 30.0525 20.3111 30.0204 20.43C29.9047 20.8711 29.7813 21.2354 29.7351 21.3658L29.0191 21.206L28.6053 21.114L28.2955 21.0449H28.2981ZM24.0153 23.0648C24.0012 23.268 23.978 23.4815 23.9472 23.6989C23.7865 24.8533 23.4408 26.0831 23.4408 26.0831L22.0102 25.7635C22.0924 25.339 22.1824 24.8814 22.2814 24.4339C22.3482 24.1348 22.4176 23.8395 22.4935 23.5595C22.5809 23.2361 22.6734 22.9357 22.775 22.6723C22.8341 22.5163 22.8971 22.3744 22.9613 22.2504C22.9896 22.1968 23.0179 22.1469 23.0474 22.1009C23.2454 21.7826 23.4678 21.6317 23.7197 21.7468C23.8482 21.8056 23.9305 21.9513 23.978 22.1546C24.0333 22.3936 24.0397 22.7119 24.0153 23.0648ZM22.1528 29.3327C22.5629 29.3263 23.0436 29.3097 23.5924 29.2944L23.6066 29.3353L23.6233 29.3826C23.6156 29.3928 23.6091 29.4031 23.6014 29.4133C23.1901 29.9719 22.8238 30.5204 22.4947 31.0637C22.3701 31.2695 22.2518 31.4753 22.1374 31.6799C22.1143 31.7208 22.0911 31.7617 22.0693 31.8026C22.1528 31.8026 22.2364 31.8077 22.3199 31.8077C22.4356 31.8077 22.5526 31.8039 22.6696 31.7988C22.8366 31.7911 23.0063 31.777 23.176 31.7579C23.3225 31.7412 23.4703 31.7221 23.6181 31.6978L23.2994 32.8995C23.212 32.8956 23.1271 32.8931 23.0449 32.8905C22.487 32.8701 22.0629 32.8585 21.7711 32.8585C21.6259 32.8585 21.4433 32.8611 21.2274 32.8675C20.9459 32.8752 20.6079 32.8854 20.2107 32.9007L20.1747 32.8176C20.2685 32.6668 20.3611 32.5185 20.4536 32.3689C20.7544 31.8831 21.0487 31.4025 21.3354 30.9243C21.3521 30.8949 21.3701 30.8668 21.3868 30.8387C21.4858 30.6725 21.5847 30.5076 21.6824 30.3414C21.5179 30.3478 21.3534 30.358 21.1901 30.3708C21.1529 30.3734 21.1156 30.3772 21.0783 30.3797C20.7505 30.4066 20.4253 30.4437 20.0976 30.4922L20.4266 29.3059C20.5025 29.3085 20.5744 29.311 20.6439 29.3123C20.8791 29.32 21.086 29.3251 21.2647 29.3289C21.5012 29.334 21.6888 29.3366 21.8277 29.3366C21.9292 29.3366 22.0385 29.3366 22.1516 29.334L22.1528 29.3327ZM20.1567 27.8677C20.3637 27.4228 20.6297 27.2004 21.0063 27.3691C21.0616 27.3947 21.1091 27.4343 21.149 27.4855C21.2223 27.5775 21.2711 27.7079 21.302 27.8677H20.1567ZM21.3315 23.9852C21.3007 24.1476 21.2698 24.3061 21.2377 24.457C21.2235 24.5221 21.2094 24.5861 21.1966 24.6474C21.0796 25.1741 20.9703 25.5781 20.9433 25.6791L20.4459 25.5909L20.3302 25.5704L20.1978 25.541L19.7261 25.4349L19.5076 25.3863L19.5025 25.4234L19.0166 25.3378C19.1978 25.3416 19.3649 25.3275 19.5192 25.2981L19.514 25.3403C19.5166 25.3263 19.5192 25.3109 19.523 25.2969C19.5462 25.1767 19.5706 25.0527 19.595 24.9287C19.6117 24.8417 19.6297 24.7561 19.6477 24.6679C19.6516 24.6462 19.6567 24.6257 19.6606 24.604C19.7043 24.3879 19.7505 24.1706 19.7994 23.9545C19.8341 23.7999 19.8701 23.6464 19.9074 23.4956C19.9074 23.4943 19.9074 23.4918 19.9074 23.4905C19.9074 23.4892 19.9074 23.4866 19.9074 23.4854C20.2313 22.1814 20.649 21.1076 21.212 21.3671C21.2377 21.3786 21.2621 21.3939 21.284 21.4131C21.4459 21.5473 21.5115 21.8541 21.5205 22.2428C21.5307 22.7452 21.4421 23.3869 21.3315 23.9827V23.9852ZM18.9588 24.7484C18.8611 24.7484 18.757 24.7408 18.6477 24.7241C18.4845 24.6998 18.3084 24.6589 18.1182 24.5925C18.0063 24.5541 17.9009 24.5132 17.802 24.4723C17.703 24.4314 17.6105 24.3905 17.523 24.347C17.4369 24.3048 17.3572 24.2626 17.2827 24.2192C17.1991 24.1706 17.1207 24.122 17.0488 24.0722C16.9112 23.9763 16.7955 23.8778 16.6991 23.7781C16.6387 23.7155 16.5847 23.6528 16.5385 23.5889C16.4678 23.4918 16.4125 23.3946 16.3701 23.2987C16.3161 23.1747 16.2827 23.052 16.266 22.9331C16.2326 22.6915 16.2634 22.4652 16.3148 22.2735L18.8572 23.1402L19.766 23.4509L19.7056 23.8996L19.6079 24.627C19.6079 24.627 19.5963 24.6321 19.5912 24.6346C19.5205 24.6628 19.4459 24.6858 19.3662 24.7037C19.2428 24.7318 19.1066 24.7471 18.9575 24.7471L18.9588 24.7484ZM18.7634 27.869H15.8662C16.3161 27.699 16.8045 27.6056 17.3148 27.6056C17.8251 27.6056 18.3135 27.699 18.7634 27.869ZM14.4665 24.154C14.9022 24.7037 14.8084 25.5001 14.2557 25.9335C13.703 26.3669 12.9023 26.2735 12.4665 25.7238C12.3046 25.5193 12.2159 25.2802 12.1966 25.0373C12.1568 25.1997 12.0154 25.3416 11.8341 25.3736C11.4601 25.44 11.3123 25.3071 11.3123 25.3071C11.3123 25.3071 11.1362 25.6177 10.9665 26.7171C10.9472 26.845 10.9228 26.9703 10.8971 27.093C10.9035 27.0866 10.9087 27.0815 10.9151 27.0751C10.9845 27.0086 11.4858 25.8785 12.3213 26.2966C12.8521 26.5625 12.9472 26.9741 12.946 27.24C12.946 27.4113 13.0398 27.5698 13.1889 27.6555C13.2968 27.7169 13.4254 27.791 13.5578 27.8677H10.2185C10.4524 27.373 10.7146 26.8284 10.7454 26.2467C10.8174 24.8878 11.41 24.3381 11.9113 24.5579C12.0809 24.6321 12.1683 24.7433 12.1979 24.8584C12.2197 24.5119 12.383 24.1757 12.6786 23.943C13.2313 23.5097 14.0321 23.603 14.4678 24.1527L14.4665 24.154ZM10.7172 29.2548C10.7544 29.2458 10.7904 29.2356 10.829 29.2279C10.8894 29.2151 10.9498 29.2023 11.0128 29.1908L11.2339 29.4491L11.6555 29.94C10.3213 30.4501 9.7146 30.955 9.7146 31.1838C9.7146 31.2874 9.89712 31.538 10.2275 31.7246C10.41 31.8282 10.5835 31.8703 10.8033 31.8703H10.8406C10.8406 31.4702 10.8303 31.0637 10.8097 30.6572C11.1555 30.7556 11.5115 30.8809 11.883 31.0368C11.8624 31.313 11.8406 31.5623 11.8406 31.7962C11.8406 32.0928 11.8663 32.4622 11.9035 32.8995H11.0192C10.784 32.8995 10.5218 32.9046 10.2185 32.9046C9.89455 32.9046 9.64263 32.7742 9.27116 32.4469C8.80073 32.0301 8.54366 31.5367 8.54366 31.3066C8.54366 31.01 8.80587 30.4628 9.43312 29.9221C9.62077 29.7597 9.81743 29.6255 10.0257 29.5155C10.2416 29.4018 10.4704 29.3148 10.7185 29.2522L10.7172 29.2548ZM12.0629 32.8713C12.5989 31.7898 13.0938 30.6853 13.5578 29.5552C13.5963 29.4619 13.6362 29.3685 13.6747 29.2752H14.4961L16.2955 32.856L14.9716 32.9237L14.721 32.2321C14.4537 32.2219 14.2506 32.2168 14.1092 32.2168C13.9832 32.2168 13.7853 32.2219 13.5179 32.2321L13.3547 32.7103L13.2827 32.9186L12.0629 32.8713ZM18.1914 32.8624C18.122 32.8624 18.0552 32.8611 17.9961 32.8611C17.6606 32.8611 17.1374 32.8764 16.4369 32.9033L16.4009 32.8202C16.8817 32.0519 17.3431 31.2963 17.7878 30.5447C17.8187 30.4935 17.8495 30.4411 17.8804 30.39C17.8894 30.3746 17.8997 30.358 17.9087 30.3427C17.8919 30.3427 17.8752 30.3452 17.8585 30.3452C17.8161 30.3465 17.775 30.3503 17.7326 30.3516C17.5166 30.3631 17.302 30.3785 17.0886 30.3989C16.8328 30.4245 16.5783 30.4552 16.3225 30.4935L16.3508 30.39L16.6117 29.4516L16.6516 29.3072C16.9485 29.3161 17.203 29.3238 17.4215 29.3289C17.6889 29.3353 17.9009 29.3379 18.0539 29.3379C18.0976 29.3379 18.1439 29.3379 18.1901 29.3379C18.4254 29.3366 18.6876 29.3302 18.9768 29.3225C19.0243 29.3212 19.0719 29.32 19.1207 29.3187C19.2338 29.3148 19.3508 29.3123 19.4716 29.3084C19.5616 29.3059 19.6529 29.3033 19.748 29.2995C19.7711 29.2995 19.7942 29.2982 19.8187 29.2969L19.8367 29.3494L19.8495 29.3852C19.8341 29.4069 19.8187 29.4286 19.8032 29.4503C19.7801 29.4823 19.757 29.5143 19.7338 29.545C19.7184 29.5667 19.7017 29.5884 19.6863 29.6101C19.6117 29.7137 19.5385 29.8173 19.4665 29.9208C19.3804 30.0448 19.2955 30.1688 19.2133 30.2915C19.194 30.3209 19.1747 30.3516 19.1541 30.381C19.0655 30.5165 18.9781 30.6508 18.8932 30.7863C18.8431 30.8655 18.7943 30.9448 18.7467 31.0228C18.7326 31.0458 18.7184 31.0688 18.7043 31.0918C18.6104 31.249 18.5179 31.405 18.4305 31.561C18.3842 31.6415 18.3392 31.7233 18.2955 31.8039C18.3649 31.8039 18.4344 31.8064 18.5038 31.8077C18.5179 31.8077 18.532 31.8077 18.5475 31.8077C18.577 31.8077 18.6066 31.8064 18.6362 31.8064C18.6374 31.8064 18.64 31.8064 18.6413 31.8064C18.8007 31.8039 18.9613 31.7975 19.1233 31.786C19.1644 31.7834 19.2068 31.7796 19.248 31.7757C19.3521 31.7668 19.4562 31.7553 19.5616 31.7412C19.6554 31.7284 19.7505 31.7157 19.8444 31.7003L19.7493 32.0583L19.7068 32.2181L19.6336 32.4955L19.5924 32.6527L19.5256 32.9033C19.4048 32.8982 19.2917 32.8943 19.1824 32.8905C18.9241 32.8816 18.6966 32.8739 18.4986 32.8688C18.3868 32.8662 18.2853 32.8637 18.1927 32.8624H18.1914ZM18.9549 34.0666H20.1246C20.1117 34.2724 20.086 34.4898 20.0526 34.7045C20.023 34.8976 19.9883 35.0868 19.9523 35.2632L19.4395 35.1584L18.7531 35.019C18.8161 34.6828 18.8804 34.3568 18.9536 34.0666H18.9549ZM20.1233 40.3103C20.266 39.4282 20.4151 38.6062 20.6464 38.1153C20.739 37.9197 20.8444 37.7765 20.9678 37.7037C21.0886 37.6321 21.2261 37.6282 21.3855 37.7088C22.032 38.0386 21.5217 40.6478 21.3341 41.5069L20.2261 41.2819L19.9768 41.2307C20.0269 40.9239 20.0744 40.6133 20.1233 40.3103ZM21.041 35.4831C21.1374 34.9602 21.2351 34.4578 21.3624 34.0666H22.4382C22.4523 34.5652 22.3431 35.221 22.2377 35.7273L21.041 35.4844V35.4831ZM23.5372 38.1958C24.1721 38.5193 23.6914 41.0403 23.496 41.9454L22.1361 41.6692C22.442 39.7823 22.6773 37.7573 23.5372 38.1958ZM22.9151 35.864C23.0436 35.1635 23.1734 34.4911 23.3688 34.0666H24.2942C24.3932 34.5908 24.2441 35.4805 24.1091 36.1069L22.9151 35.864ZM25.2737 38.5704C25.9035 38.8913 25.4356 41.3765 25.2364 42.2995L23.8752 42.0233C24.1798 40.1428 24.4163 38.1345 25.2737 38.5704ZM25.1541 36.3192C25.3443 35.2773 25.5346 34.2852 25.9369 34.0666H26.3032C26.7672 34.275 26.5359 35.6979 26.3469 36.5608L25.1541 36.3179V36.3192ZM27.4523 38.7967C28.14 39.147 27.5204 42.0681 27.37 42.7341L26.0204 42.4593C26.3431 40.5212 26.5641 38.3441 27.4536 38.7967H27.4523ZM27.3906 36.7743C27.6413 35.4064 27.8726 34.0666 28.5667 34.3798C29.0564 34.601 28.7698 36.176 28.5795 37.0159L27.3919 36.7743H27.3906ZM29.3071 39.4078C29.5731 39.5433 29.6425 40.0623 29.6207 40.6874C29.5911 41.5376 29.3893 42.5833 29.2736 43.1215L29.0628 43.0793L27.9112 42.8453C28.2145 40.9687 28.4523 38.9731 29.3071 39.409V39.4078ZM29.2145 37.145C29.451 35.8577 29.6939 34.6751 30.3495 34.9705C30.7209 35.1379 30.6464 36.0827 30.505 36.8957C30.4754 37.0683 30.442 37.2358 30.4099 37.3879L30.3906 37.3841L29.2132 37.145H29.2145ZM31.3058 25.6932C31.1065 26.5944 30.7415 27.4126 30.7415 27.4126L29.3109 27.093C29.4703 26.2735 29.6104 25.3927 29.7968 24.6986C29.8559 24.4761 29.9214 24.2741 29.9921 24.099C30.0448 23.9686 30.1014 23.8523 30.1631 23.7564C30.2711 23.5851 30.3945 23.4726 30.5371 23.4381C30.6425 23.4112 30.7582 23.4266 30.8867 23.493C30.9227 23.5122 30.9561 23.5327 30.987 23.5557C31.5294 23.9379 31.4908 24.8507 31.3058 25.6932ZM32.4613 20.2856C32.4471 20.4326 32.4279 20.5821 32.406 20.7304C32.3443 21.1574 32.2595 21.5793 32.1836 21.9155L30.9523 21.6406L30.7672 21.5997L30.7132 21.5882C30.7351 21.4681 30.7569 21.3492 30.7788 21.2303C30.8225 20.9951 30.8662 20.7624 30.9137 20.5412C30.96 20.3213 31.0076 20.1117 31.0603 19.9161C31.1541 19.5633 31.2608 19.2603 31.3893 19.0378C31.451 18.9305 31.5178 18.8435 31.5911 18.7783C31.7389 18.6441 31.9124 18.6032 32.1194 18.6837C32.1322 18.6888 32.1438 18.6927 32.1567 18.6978C32.4973 18.8512 32.5358 19.5339 32.4613 20.2868V20.2856ZM29.8675 15.599C29.8906 15.5248 29.9137 15.4532 29.9369 15.3829C29.987 15.2321 30.0371 15.0902 30.0885 14.9547C30.1297 14.8473 30.1708 14.745 30.2132 14.6478C30.2158 14.6427 30.2171 14.6376 30.2196 14.6325C30.6657 13.6111 31.1657 13.1457 31.6528 13.2148C31.7543 13.2288 31.8559 13.2672 31.9574 13.3285C31.978 13.3413 31.9998 13.3554 32.0204 13.3694C32.5011 13.7108 32.3212 14.8128 32.1399 15.5299C32.1091 15.6514 32.0782 15.7613 32.0513 15.8559C32.0487 15.8649 32.0461 15.8751 32.0435 15.884V15.8853C32.0088 16.0042 31.9793 16.0924 31.9639 16.1397C31.9561 16.164 31.951 16.1781 31.951 16.1781L31.4896 16.0554L30.7466 15.8585L29.9651 15.6514L29.8597 15.6233C29.8623 15.6143 29.8649 15.6066 29.8675 15.5977V15.599ZM27.3353 14.7616C27.3495 14.7182 27.3623 14.6747 27.3765 14.6325C27.4677 14.3538 27.5616 14.102 27.658 13.877C27.6785 13.8284 27.6991 13.7824 27.7197 13.7363C27.7287 13.7172 27.7364 13.698 27.7454 13.6801C28.1091 12.9041 28.5063 12.4886 28.9009 12.4222C29.0783 12.3915 29.2556 12.4324 29.4292 12.5436C29.4446 12.5538 29.46 12.5628 29.4754 12.5743C29.8803 12.8619 29.816 13.6903 29.6772 14.373C29.6759 14.3807 29.6747 14.3883 29.6721 14.396C29.6515 14.4957 29.6297 14.5929 29.6065 14.6836C29.5448 14.9355 29.4819 15.1451 29.442 15.2666C29.4253 15.319 29.4137 15.3548 29.4073 15.3714C29.4047 15.3778 29.4035 15.3829 29.4035 15.3829L27.3122 14.8281C27.3186 14.8064 27.3263 14.7846 27.3328 14.7629L27.3353 14.7616ZM27.1991 17.6252C27.9394 17.9653 27.194 20.2625 27.0204 20.7637L25.5757 20.4415C25.9369 18.6096 26.3829 17.2519 27.1991 17.6265V17.6252ZM24.5641 14.0994C24.6413 13.854 24.7197 13.6277 24.8019 13.4219C24.8096 13.4027 24.8174 13.3835 24.8251 13.3643C24.8456 13.3132 24.8662 13.2633 24.8868 13.216C25.0577 12.8172 25.2377 12.5001 25.4215 12.2649C25.5102 12.1511 25.6014 12.0565 25.6914 11.9798C26.0281 11.6986 26.3726 11.6781 26.7042 11.9134C26.7659 11.9581 26.8173 12.0156 26.8585 12.0821C26.8816 12.1192 26.9022 12.1601 26.9189 12.2036C27.0513 12.5347 27.0243 13.0243 26.9485 13.4845C26.9433 13.5139 26.9382 13.5433 26.933 13.5727C26.9266 13.606 26.9215 13.6379 26.915 13.6699C26.8521 13.9895 26.7724 14.2797 26.7145 14.474C26.6991 14.5238 26.6862 14.5673 26.6747 14.6031C26.6503 14.6772 26.6361 14.722 26.6361 14.722L24.7801 14.2298L24.5449 14.1672C24.5513 14.1442 24.559 14.1224 24.5667 14.0994H24.5641ZM24.5063 16.9183C24.9485 17.1215 24.8598 18.0241 24.6798 18.8243C24.5217 19.5287 24.2929 20.1539 24.2929 20.1539L23.7415 20.0312L23.5217 19.9826L23.3765 19.9506L22.8624 19.8356C22.9073 19.6054 22.9523 19.383 22.9999 19.1695C23.0282 19.0455 23.0564 18.9241 23.0847 18.8065C23.1888 18.3833 23.3032 18.0087 23.4305 17.7032C23.7055 17.0448 24.0474 16.7086 24.505 16.9195L24.5063 16.9183ZM23.3958 13.2608L23.3816 13.4052L23.3624 13.597L23.3418 13.8067L22.8932 13.6993L22.3778 13.5765L22.14 13.5203C22.5295 13.3976 22.951 13.3119 23.3971 13.2621L23.3958 13.2608ZM22.1464 16.458C22.3225 16.5386 22.4138 16.7303 22.4498 16.9822C22.4639 17.0806 22.469 17.188 22.4678 17.3018C22.4678 17.3146 22.4678 17.3274 22.4678 17.3401C22.4652 17.4232 22.46 17.5089 22.451 17.5958C22.3714 18.4063 22.0449 19.3792 21.9575 19.6297L20.5179 19.3076C20.5475 19.1542 20.5783 19.0033 20.6104 18.8576C20.6284 18.7719 20.6477 18.6876 20.667 18.6045C20.7801 18.1084 20.9048 17.6674 21.0462 17.3107C21.0809 17.2225 21.1169 17.1394 21.1541 17.0614C21.4151 16.522 21.7338 16.265 22.149 16.4555L22.1464 16.458ZM20.9241 13.9473C20.969 13.9307 21.014 13.914 21.0577 13.8974V13.9089L21.0423 14.0099L20.8636 13.9703C20.8842 13.9626 20.9035 13.955 20.9241 13.9473ZM8.33029 25.1511C8.69019 24.6104 9.09893 24.0913 9.56165 23.5966C11.6169 21.4016 12.302 19.8522 12.7557 18.8269C12.9434 18.4025 13.1053 18.0356 13.3136 17.7364C13.5462 17.4015 14.1529 16.9886 14.9511 16.5501C16.4279 15.7396 18.5655 14.846 20.2248 14.2094L20.3559 14.4484L20.721 15.1106C17.9588 16.1589 14.9909 17.5268 14.2763 18.1915C14.2274 18.2376 14.1863 18.281 14.1593 18.3194C14.0064 18.5393 13.8701 18.8486 13.6966 19.2398C13.6285 19.392 13.5565 19.5569 13.4755 19.732C12.9819 20.8046 12.1825 22.299 10.3123 24.2946C9.30458 25.3697 8.56422 26.5804 8.09893 27.869H7.00768C7.31487 26.9217 7.75574 26.0102 8.32772 25.1511H8.33029ZM5.2429 32.7921L4.24934 32.9429C3.9897 32.6885 3.76348 32.4188 3.56811 32.1235C3.49613 32.0148 3.428 31.9036 3.36502 31.7873L3.16579 31.7719L3.14009 32.9007H2.08868C2.09896 32.406 2.1041 32.0059 2.1041 31.7042C2.1041 31.0228 2.04112 30.2263 1.94729 29.3097L3.77376 29.2944H3.80975C4.19664 29.2944 4.42671 29.3724 4.66322 29.5654C5.08224 29.9042 5.32774 30.2839 5.32774 30.4756C5.32774 30.7773 5.03468 31.0995 4.46913 31.5431C4.63622 31.9854 4.89843 32.3919 5.2429 32.7921ZM6.53467 32.8956C6.39843 32.8956 6.13236 32.8956 5.74419 32.9058C5.84316 32.2027 5.84316 31.5316 5.84316 30.8809V30.7198C5.84316 30.3861 5.83802 29.9029 5.7339 29.2727H8.01538L8.26089 30.1522C7.96269 30.1266 7.74803 30.11 7.62207 30.11C7.60922 30.11 7.59251 30.11 7.57837 30.11C7.52053 30.11 7.45626 30.1138 7.38428 30.1164C7.26217 30.1228 7.12079 30.133 6.95755 30.1445L6.93698 30.6648C7.10022 30.6763 7.25446 30.6853 7.39842 30.6891C7.44341 30.6891 7.48839 30.6904 7.5321 30.6904C7.53595 30.6904 7.53981 30.6904 7.54366 30.6904C7.70048 30.6904 7.92541 30.6699 8.22361 30.6431L8.08222 31.5175C7.86371 31.4868 7.67991 31.4689 7.52053 31.4625C7.49739 31.4625 7.47426 31.4613 7.4524 31.4613C7.44469 31.4613 7.4357 31.4613 7.4267 31.4613C7.36372 31.4613 7.21719 31.4715 6.99225 31.4817L6.9614 32.0174L7.51924 32.0506L7.55138 32.0532L8.19148 32.0915L7.91898 32.9608C7.83158 32.9544 7.74803 32.948 7.6632 32.9416C7.66063 32.9416 7.65806 32.9416 7.6542 32.9416C7.374 32.9212 7.1105 32.9071 6.86757 32.8995C6.77889 32.8969 6.69405 32.8956 6.61051 32.8956C6.5848 32.8956 6.55652 32.8956 6.53082 32.8956H6.53467ZM18.7133 44.4983C18.649 45.0225 18.2158 45.328 18.2158 45.328C18.2158 45.328 18.5153 45.4993 18.5719 45.732C18.5835 45.7818 18.586 45.8342 18.5706 45.8892C18.559 45.9276 18.5333 46.0388 18.4961 46.205C18.4395 46.4581 18.3559 46.8378 18.2621 47.2763C18.2326 47.4143 18.2017 47.5588 18.1696 47.7071C18.1631 47.7352 18.158 47.7633 18.1516 47.7915C18.1272 47.9027 18.104 48.0165 18.0783 48.1302C18.0359 48.3309 17.9922 48.5342 17.9485 48.7362C17.6837 49.9775 17.4356 51.1511 17.4356 51.1523L17.4318 51.1511L16.1169 50.4505L16.4626 47.8886C16.1439 47.6751 15.829 47.4527 15.5192 47.2315C14.6927 46.6435 13.9125 46.0874 13.2364 45.8956C11.5912 45.4277 9.829 43.0755 8.64006 41.1834C7.60408 39.5356 7.55523 36.718 7.55652 36.0993C7.25703 35.4256 7.02182 34.7442 6.84829 34.0641H7.91513C8.0758 34.6393 8.28273 35.2133 8.54109 35.7822L8.58864 35.8883L8.58608 36.0047C8.58608 36.0341 8.53723 38.7737 9.36756 40.387C9.41255 40.4752 9.46011 40.5609 9.51152 40.6427C9.51795 40.6542 9.52566 40.6644 9.53209 40.6759C9.88298 41.2333 10.2313 41.7434 10.5706 42.2036C10.964 42.7367 11.347 43.2007 11.712 43.5894C11.9678 43.8604 12.2146 44.0956 12.4498 44.2887C12.775 44.5571 13.0796 44.7489 13.356 44.8575C13.4112 44.8793 13.4652 44.8984 13.5179 44.9138C14.365 45.1541 15.2159 45.7601 16.1169 46.4018C16.2814 46.5195 16.4485 46.6371 16.6156 46.7534L16.8213 45.2334C16.5963 45.2717 16.365 45.2922 16.1297 45.2922C13.8688 45.2922 12.0359 43.4692 12.0359 41.2205C12.0359 38.9718 13.8688 37.1488 16.1297 37.1488C16.4446 37.1488 16.7506 37.1859 17.0449 37.2524C17.1387 36.2885 17.5089 35.7835 17.8971 35.7221L18.0616 36.0584L17.9896 36.594C17.7094 36.6132 17.5963 36.5122 17.5963 36.5122C17.5963 36.5122 17.4858 36.7091 17.356 37.3368C17.5308 37.3917 17.6991 37.4569 17.8624 37.5336L17.7261 38.5397C17.6503 38.5116 17.5603 38.4937 17.4639 38.4937C17.3277 38.4937 17.2043 38.5269 17.1156 38.5794C17.0873 38.6944 17.0565 38.8056 17.0256 38.9105C17.1053 39.0063 17.2711 39.0728 17.4639 39.0728C17.532 39.0728 17.5976 39.0639 17.6567 39.0498L17.5539 39.8066C17.4973 39.8629 17.4626 39.9408 17.4626 40.0265C17.4626 40.0815 17.4781 40.1326 17.5038 40.1773L17.4305 40.7155L17.3521 40.6989L16.4948 40.5251L16.7673 41.0786L17.2493 42.0604L17.2313 42.1946C17.077 42.265 16.9729 42.3928 16.9729 42.5424C16.9729 42.6613 17.0398 42.7661 17.1439 42.8402L17.0488 43.5408L17.0668 43.4091C17.0668 43.4091 17.9742 42.7341 18.5333 43.7223C18.6696 43.9627 18.7197 44.1813 18.7197 44.3743C18.7197 44.4178 18.7171 44.4587 18.712 44.4996L18.7133 44.4983ZM18.3817 40.906L18.0038 40.8293C18.0847 40.3499 18.158 39.8539 18.2377 39.3835C18.2506 39.3106 18.2621 39.2377 18.275 39.1661C18.356 38.7072 18.4434 38.2815 18.5487 37.9338C18.5809 37.8289 18.6143 37.7318 18.6503 37.6423C18.8418 37.1603 19.0912 36.9162 19.4485 37.099C19.7184 37.237 19.7865 37.7727 19.7608 38.4119C19.7505 38.6676 19.7248 38.9386 19.6914 39.2083C19.5873 40.0469 19.4061 40.8638 19.3508 41.1016L19.0269 41.0351L18.3842 40.9047L18.3817 40.906ZM22.2377 48.7042L22.2055 48.91L22.2017 48.9356L22.0834 49.7052L21.6631 52.4422C21.6631 52.4422 21.658 52.4422 21.6503 52.441C21.5847 52.432 21.2595 52.3873 20.8636 52.3221C20.1824 52.2083 19.2968 52.0344 19.1901 51.8759L19.5937 49.2616L19.6888 48.6441L19.7094 48.5099L19.7493 48.2517L19.996 46.655L20.131 45.7831C20.131 45.7831 20.1529 45.7805 20.1876 45.7767C20.3444 45.7563 20.7711 45.6834 20.6914 45.5197C20.595 45.3203 20.5847 43.6686 21.721 43.8297C22.8572 43.9908 22.6657 45.0531 22.266 45.6156L22.6438 46.0733L22.2402 48.7042H22.2377ZM25.7261 46.2344L25.9202 46.7764L25.6425 48.7362L25.622 48.8794L25.6194 48.896L25.4767 49.9097L25.1631 52.1239C25.1631 52.1239 24.6657 52.2658 24.1168 52.3834C23.8739 52.4359 23.6207 52.4832 23.3958 52.5113L23.3726 52.4755L22.9755 51.8823L22.8649 51.9756L23.2068 49.8215L23.3405 48.9765L23.3521 48.9049L23.3662 48.8193L23.7672 46.2906L24.0526 46.0055C24.0526 46.0055 23.8971 44.6645 24.8096 44.6325C25.7222 44.6006 26.2904 45.1529 25.9472 45.7805C25.6027 46.4082 25.7274 46.2331 25.7274 46.2331L25.7261 46.2344ZM39.0281 41.6398C38.8289 42.017 38.5255 42.4184 38.2594 42.8773C37.1656 44.7604 35.6669 47.3402 31.6258 48.8768C30.3032 49.3792 28.8893 49.6669 27.4896 49.8049L27.2119 50.9951C27.2119 50.9951 26.4305 51.8363 25.9883 51.7928L26.2852 49.8893L26.4446 48.8679L26.4562 48.795L26.4819 48.6288L26.7775 46.7355L27.1181 46.7202C27.1181 46.7202 27.0551 45.2193 27.9497 45.0761L28.5988 45.0455L27.8122 48.4153L27.7646 48.6173L27.7325 48.7554C28.9292 48.6122 30.1271 48.3501 31.2569 47.9206C31.3173 47.8976 31.3765 47.8733 31.4356 47.8503C32.1014 47.5856 32.6901 47.2929 33.2119 46.9784C35.4818 45.6105 36.5088 43.8438 37.3674 42.366C37.5294 42.0873 37.6849 41.8201 37.843 41.5682C37.6733 41.5912 37.4343 41.5964 37.2492 41.5964C37.0988 41.5964 36.9587 41.6769 36.8931 41.8111C36.8507 41.8968 36.7864 41.9991 36.6875 42.1052C36.5062 42.3008 36.253 42.3928 35.9998 42.3813C35.8854 42.6779 35.7942 42.9591 35.7158 43.2071C35.7068 43.9908 35.0654 44.6236 34.2749 44.6236C33.4844 44.6236 32.834 43.9818 32.834 43.1905C32.834 42.3992 33.4793 41.7574 34.2749 41.7574C34.771 41.7574 35.208 42.0067 35.4664 42.3851C35.4883 42.3353 35.5114 42.2841 35.5345 42.2317C35.1078 41.9658 34.6245 41.4864 34.7428 40.7207C33.0371 40.6133 31.6155 39.4678 31.1091 37.912L31.5435 37.618L31.0011 37.5081C30.942 37.2332 30.9112 36.9494 30.9112 36.6579C30.9112 35.6736 31.2621 34.771 31.8469 34.0666H32.8212C32.7968 34.1357 32.7826 34.2124 32.7826 34.2955C32.7826 34.5818 32.9471 34.8145 33.1502 34.8145C33.3533 34.8145 33.5178 34.5818 33.5178 34.2955C33.5178 34.2136 33.5024 34.1357 33.4793 34.0666H34.3289C34.3019 34.1357 34.2852 34.2124 34.2852 34.2955C34.2852 34.5818 34.4703 34.8145 34.6991 34.8145C34.9278 34.8145 35.1129 34.5818 35.1129 34.2955C35.1129 34.2136 35.0962 34.1357 35.0692 34.0666H35.924C35.8777 34.1114 35.8494 34.1625 35.8494 34.2188C35.8494 34.3786 36.0692 34.509 36.3404 34.509C36.6116 34.509 36.8314 34.3798 36.8314 34.2188C36.8314 34.1625 36.8032 34.1114 36.7569 34.0666H38.1643C38.7492 34.771 39.1001 35.6736 39.1001 36.6579C39.1001 38.0475 38.3996 39.2748 37.3301 40.0099C37.2813 40.1109 37.226 40.2144 37.1656 40.3167C37.5307 40.3295 37.9805 40.3474 38.0358 40.3602C38.1052 40.3768 38.0756 40.9022 38.0615 41.2346C38.1052 41.1707 38.1476 41.1055 38.1926 41.0441C38.924 40.0329 40.1065 36.6477 40.9458 34.0666H42.271C41.3623 36.4521 40.1232 39.5714 39.0268 41.6424L39.0281 41.6398ZM45.199 32.9212H45.1823L44.9317 32.2296C44.6643 32.2194 44.4612 32.2142 44.3198 32.2142C44.1939 32.2142 43.9959 32.2194 43.7286 32.2296L43.4934 32.9161L42.717 32.8867L42.2736 32.8701C42.6168 32.1784 42.9407 31.4779 43.253 30.7671C43.2684 30.7313 43.2838 30.6955 43.2993 30.661C43.4998 30.2033 43.6952 29.7418 43.8854 29.2739H44.7067L45.0743 30.0065L46.5062 32.8547L45.199 32.9212ZM47.9715 31.1161C48.1489 31.3347 48.2491 31.5226 48.2491 31.8192C48.2491 32.3344 47.9355 32.709 47.3018 32.98L46.3018 32.4226L46.2967 32.3651C46.7106 32.2922 46.9612 32.0263 46.9612 31.7297C46.9612 31.5111 46.8455 31.35 46.699 31.1621C46.4946 30.9013 46.307 30.7147 46.307 30.3759C46.307 29.9029 46.663 29.4861 47.3378 29.2727L48.253 29.7776C47.8288 29.9758 47.6142 30.2302 47.6142 30.4961C47.6142 30.73 47.7864 30.8911 47.9702 31.1148L47.9715 31.1161Z" fill="white"/>
</g>
</svg>
