<?xml version="1.0" encoding="UTF-8"?>
<svg id="Capa_1" data-name="Capa 1" xmlns="http://www.w3.org/2000/svg" viewBox="0 0 481.74 525.66">
  <defs>
    <style>
      .cls-1 {
        fill: #fff;
      }
    </style>
  </defs>
  <path class="cls-1" d="m381.99,294.91h-44.41c-6.53,20.19-15.72,46.67-21.42,54.58-.34.48-.68.99-1.02,1.49.11-2.6.34-6.71-.2-6.84-.42-.1-3.92-.24-6.77-.34.47-.8.9-1.6,1.28-2.4,8.32-5.75,13.77-15.34,13.77-26.22,0-7.7-2.73-14.76-7.28-20.27h-10.95c.36.35.58.75.58,1.19,0,1.25-1.71,2.27-3.82,2.27s-3.82-1.01-3.82-2.27c0-.44.22-.84.58-1.19h-6.65c.21.54.34,1.14.34,1.79,0,2.24-1.44,4.06-3.22,4.06s-3.22-1.82-3.22-4.06c0-.64.13-1.25.34-1.79h-6.61c.19.54.3,1.14.3,1.79,0,2.24-1.28,4.06-2.86,4.06s-2.86-1.82-2.86-4.06c0-.64.12-1.25.3-1.79h-7.58c-4.55,5.51-7.28,12.57-7.28,20.27,0,2.28.24,4.51.7,6.65l4.22.86-3.38,2.3c3.94,12.17,15,21.13,28.27,21.97-.06.4-.1.78-.12,1.16l-39.68-1.83v.02s35.05,1.86,35.05,1.86c-.3,2.42-1.1,5.25-3.11,7.73-1.17,1.44-2.74,2.77-4.88,3.83-3.57,1.79-8.68,2.84-16.02,2.48-5.81-.29-9.73-2-12.38-4.23.21-1.29.41-2.64.59-4.01.28.37.6.73.95,1.08.43.43.91.83,1.45,1.21.67.47,1.44.9,2.31,1.26.71.3,1.5.56,2.36.76.64.15,1.33.27,2.06.36.52.06,1.05.12,1.61.14.23.01.44.02.66.02.66.02,1.3.03,1.9.03.92-.01,1.79-.06,2.6-.14.73-.07,1.43-.17,2.08-.28.73-.13,1.41-.29,2.04-.48,1.2-.35,2.24-.79,3.13-1.3.56-.32,1.06-.66,1.51-1.03.71-.58,1.29-1.21,1.76-1.86.73-1.01,1.22-2.08,1.53-3.12.22-.75.37-1.48.45-2.17l-27.78-1.47c0-.1,0-.2.01-.3,0-.13,0-.26,0-.39,0,0,0-.01,0-.02.13-4.7-.44-8.57-2.45-9.6-6.65-3.41-8.49,12.21-10.86,26.88l8.96,1.83,1.64.33c.07-.31.14-.65.21-1,.42.46.87.91,1.35,1.32l8.97,1.83-2.28,1.55c1.3.3,2.71.47,4.25.45,5.89-.05,10.99-1.66,15.25-4.02,0,.14-.02.27-.02.41,0,6.19,5.02,11.21,11.21,11.21s11.13-4.95,11.21-11.08c.61-1.94,1.33-4.13,2.21-6.46,1.97.1,3.94-.63,5.35-2.16.77-.83,1.27-1.64,1.6-2.3.51-1.05,1.6-1.68,2.77-1.68,1.44,0,3.3-.04,4.62-.22-1.22,1.98-2.44,4.07-3.7,6.24-6.68,11.56-14.67,25.38-32.33,36.08-4.06,2.46-8.63,4.76-13.82,6.82-8.8,2.34-18.56,4.44-28.56,6l.37-1.58,6.12-26.36h0l-5.05.24c-6.97,1.13-6.47,12.86-6.47,12.86l-2.65.12-2.3,14.81-.2,1.3-.09.57-1.24,7.99-2.31,14.89h0c-.77.37-1.59.74-2.46,1.11.82.01,1.63.03,2.46.03,82.72,0,150.95-61.02,160.78-139.82Zm-89.38,29.09c0-1.64.83-2.97,1.86-2.97s1.86,1.33,1.86,2.97-.83,2.97-1.86,2.97-1.86-1.33-1.86-2.97Zm6.13,9.99c0-1.64.83-2.97,1.86-2.97s1.86,1.33,1.86,2.97-.83,2.97-1.86,2.97-1.86-1.33-1.86-2.97Zm10.47-8.99s-.08,0-.11-.01c.17-.11.34-.19.53-.19.57,0,1.07.59,1.37,1.48-.47-.72-1.07-1.17-1.79-1.28Zm-9.55,16.53c2.6-1.41,3.74.63,4.18,1.91-.25.31-.5.63-.75.97l-5.75.34s-1.32-1.24,2.32-3.22Zm11.75-17.88c-1.38,0-2.51-.59-2.51-1.31s1.12-1.31,2.51-1.31,2.51.59,2.51,1.31-1.12,1.31-2.51,1.31Zm3.87-21.2c1.16,0,2.11,1.51,2.11,3.36s-.94,3.36-2.11,3.36-2.11-1.51-2.11-3.36.94-3.36,2.11-3.36Zm-1.36,11.86c0,2.3-1.17,4.16-2.62,4.16s-2.62-1.86-2.62-4.16,1.17-4.16,2.62-4.16,2.62,1.86,2.62,4.16Zm-4.38-15.95c1.04,0,1.88.84,1.88,1.88s-.84,1.88-1.88,1.88-1.88-.84-1.88-1.88.84-1.88,1.88-1.88Zm-5.34,5.01c1.35,0,2.45,1.09,2.45,2.45s-1.09,2.45-2.45,2.45-2.45-1.09-2.45-2.45,1.09-2.45,2.45-2.45Zm-1.13,11.8c1.38,0,2.51.56,2.51,1.26s-1.12,1.26-2.51,1.26-2.51-.56-2.51-1.26,1.12-1.26,2.51-1.26Zm-1.07,7.16c2.07,0,3.75,1.21,4,2.76-1.22.38-1.92,1.28-1.59,2.93-.68.39-1.5.63-2.41.63-2.24,0-4.06-1.42-4.06-3.16s1.82-3.16,4.06-3.16Zm-4,7.28c0,.77-.85,1.39-1.91,1.39s-1.91-.62-1.91-1.39.85-1.39,1.91-1.39,1.91.62,1.91,1.39Zm-1.91-27.5c.82,0,1.49,1.09,1.49,2.45s-.67,2.45-1.49,2.45-1.49-1.09-1.49-2.45.67-2.45,1.49-2.45Zm-3.28,10.64c1.05,0,1.91.62,1.91,1.39s-.85,1.39-1.91,1.39-1.91-.62-1.91-1.39.85-1.39,1.91-1.39Zm-5.13,7.49c0-1.86.94-3.36,2.11-3.36s2.11,1.51,2.11,3.36-.94,3.36-2.11,3.36-2.11-1.51-2.11-3.36Zm.36,11.46c0,.63-.51,1.13-1.13,1.13s-1.13-.51-1.13-1.13.51-1.13,1.13-1.13,1.13.51,1.13,1.13Zm-1.37-27.26c2.34,0,4.24,1.15,4.24,2.56s-1.9,2.56-4.24,2.56-4.24-1.15-4.24-2.56,1.9-2.56,4.24-2.56Zm-4.54,5.71c1.16,0,2.11,1.51,2.11,3.36s-.94,3.36-2.11,3.36-2.11-1.51-2.11-3.36.94-3.36,2.11-3.36Zm-2.11,12.06c1.17,0,2.11.95,2.11,2.11s-.95,2.11-2.11,2.11-2.11-.95-2.11-2.11.95-2.11,2.11-2.11Zm-13.42-13.95c.94,0,1.7.76,1.7,1.7s-.76,1.7-1.7,1.7-1.7-.76-1.7-1.7.76-1.7,1.7-1.7Zm.89,15.39c-1.43,0-2.59-1.16-2.59-2.59s1.16-2.59,2.59-2.59,2.59,1.16,2.59,2.59-1.16,2.59-2.59,2.59Zm2.6-20.04c-.82.99-2.29,1.12-3.28.29s-1.12-2.29-.29-3.28c.82-.99,2.29-1.12,3.28-.29.99.82,1.12,2.29.29,3.28Zm4,1.29c1.16,0,2.11,1.51,2.11,3.36s-.94,3.36-2.11,3.36-2.11-1.51-2.11-3.36.94-3.36,2.11-3.36Zm-1.7,14.65c0-1.54.85-2.79,1.91-2.79s1.91,1.25,1.91,2.79-.85,2.79-1.91,2.79-1.91-1.25-1.91-2.79Zm5.88,17.46c-2.31,0-4.18-1.87-4.18-4.18s1.87-4.18,4.18-4.18,4.18,1.87,4.18,4.18-1.87,4.18-4.18,4.18Zm9.42,6.44c-2.5,0-4.53-1.44-4.53-3.22s2.03-3.22,4.53-3.22,4.53,1.44,4.53,3.22c0,.17-.03.34-.07.5-.61.61-1.07,1.26-1.4,1.86-.81.53-1.87.86-3.06.86Zm1.51,5.39c.04,4.9,3.34,8.07,6.3,9.93-.18.41-.36.8-.53,1.2-1.92-2.81-5.08-4.7-8.7-4.88,1.57-2.35,2.56-4.55,2.93-6.25Zm1.11,20.03c-1.15.37-4.01-.03-6.11.55-.46-.65-.74-1.44-.74-2.29,0-2.19,1.77-3.96,3.96-3.96s3.96,1.77,3.96,3.96c0,.2-.03.39-.06.58-.4.66-.74,1.08-1.01,1.17Zm13.01-11.03c-1.5,1.09-2.61.75-3.38.04.38-.91.78-1.83,1.23-2.76l4.04-.76s1.46,1.06-1.89,3.48Z"/>
  <path class="cls-1" d="m72.1,246.44h9.94c3.62-10.08,9.38-19.55,17.22-27.96,14.55-15.61,20.77-27.31,24.61-35.69,2.37-4.56,4.38-8.67,6.23-12.04,5.56-5.2,28.66-15.9,50.14-24.1l-2.84-5.18-1.02-1.87-.17-.31-1.7-3.1,6.76,1.52.07.02,1.39.31.11-.79v-.09s.66-4.83.66-4.83l7.76,1.86,1.85.44,4.01.96,3.49.84.16-1.64.15-1.5.11-1.13.32-3.25.39-3.93.81-8.07c-70.97,8.01-127.99,61.15-140.69,129.53h10.23Z"/>
  <path class="cls-1" d="m290.07,171.61c2.33,1.79,4.68,3.55,6.98,5.26l4.32-11.93-11.23,6.34-.08.32Z"/>
  <path class="cls-1" d="m151.07,361.21c0-1.16.81-2.17,2.01-2.72l.14-1.05-3.75-7.68-2.12-4.33,6.67,1.36.61.13.57-4.21c-.2-.35-.32-.75-.32-1.18,0-.67.27-1.28.71-1.72l.8-5.92c-.46.12-.97.18-1.5.18-1.5,0-2.79-.52-3.41-1.27.24-.82.47-1.69.7-2.59.69-.42,1.65-.67,2.71-.67.75,0,1.45.13,2.04.36l1.06-7.87c-1.27-.6-2.59-1.11-3.94-1.54,1.02-4.91,1.87-6.45,1.87-6.45,0,0,.88.79,3.06.64l.56-4.19-1.28-2.63c-3.02.47-5.9,4.43-6.63,11.97-2.29-.52-4.67-.81-7.12-.81-17.59,0-31.85,14.26-31.85,31.85s14.26,31.85,31.85,31.85c1.84,0,3.63-.16,5.38-.46l1.22-9.04.57-4.21.74-5.48c-.81-.58-1.33-1.4-1.33-2.33Zm-.36-20.94c0,1.24-.56,2.25-1.29,2.41-.6-.93-.91-1.67-.91-1.67,0,0,.52-1.14,1.23-3.02.56.35.96,1.24.96,2.28Zm2.98-15.15c0,.49-.27.94-.7,1.29.08-.44.16-.89.23-1.34.05-.3.09-.58.14-.87.21.28.33.58.33.91Zm-2.98-2.03c.21,0,.41.01.61.04-.2,1.36-.55,2.69-.98,3.99-1.47-.13-2.61-.97-2.61-2,0-1.12,1.34-2.03,2.98-2.03Zm-8.59,5.25c1.78,0,3.22,1.82,3.22,4.06s-1.44,4.06-3.22,4.06-3.22-1.82-3.22-4.06,1.44-4.06,3.22-4.06Zm-2.32,11.81c2.34,0,4.24,1.15,4.24,2.56s-1.9,2.56-4.24,2.56-4.24-1.15-4.24-2.56,1.9-2.56,4.24-2.56Zm-9.72-11.81c1.58,0,2.86,1.82,2.86,4.06s-1.28,4.06-2.86,4.06-2.86-1.82-2.86-4.06,1.28-4.06,2.86-4.06Zm-8.65,7.16c1.28,0,2.33,1.04,2.33,2.33s-1.04,2.33-2.33,2.33-2.33-1.04-2.33-2.33,1.04-2.33,2.33-2.33Zm14.14,33.04c0,2.31-1.87,4.18-4.18,4.18s-4.18-1.87-4.18-4.18c0-2.05,1.48-3.75,3.43-4.1-.23-.17-.45-.34-.67-.5-1.05-.8-2.47-.97-3.65-.37-.75.38-1.75.77-3.02,1-3.7.67-7.29-1.47-8.68-4.97-1.85-4.66-2.89-11.79,4.47-16.89.57-.4,5.45-4.28,10.97-.3,3.51,2.53,3.72,5.61,3.4,7.53-.2,1.24.29,2.49,1.27,3.28.79.64,1.75,1.42,2.72,2.2,2.19,1.78,4.4,3.61,4.66,3.93.13.16-.11.66-.56,1.33-1.38,2.08-4.75,5.86-5.29,6.72-.12.19-.44.17-.89.01.1.36.17.73.17,1.12Zm5.61-1.13c0,.63-.51,1.13-1.13,1.13s-1.13-.51-1.13-1.13.51-1.13,1.13-1.13,1.13.51,1.13,1.13Zm-.36,11.75c-2.5,0-4.53-1.44-4.53-3.22s2.03-3.22,4.53-3.22,4.53,1.44,4.53,3.22-2.03,3.22-4.53,3.22Z"/>
  <path class="cls-1" d="m282.23,214.15c-.31-.17-.47-.48-.5-.81l-1.55.88-.6,2.57c.7-.05,1.42.09,2.08.45.2.11.38.24.55.38-.4-1.07-.7-2.53.51-2.77.2-.04.38,0,.54.09l1.12-3.1-1.1.62c.41.29.56.85.31,1.3-.27.49-.88.66-1.37.39Z"/>
  <path class="cls-1" d="m282.98,202.16l-.17.71,4.4.99h.06s.07-.17.07-.17l2.82-7.8c-.35-.11-.71-.27-1.07-.46-1.47-.82-2.34-2.06-1.95-2.78s1.91-.64,3.39.18c.21.12.41.25.6.38l2.91-8.03c-.42-.54-.87-1.06-1.34-1.57.53.36,1.04.7,1.53,1.02l2.07-5.72.74-2.04c-2.12-1.44-4.51-3.12-7.04-5.01l-.59,2.54-1.22,5.24-.17.73-1.85,7.99c.34-.19.66-.24.91-.1.56.31.54,1.44-.06,2.51-.48.87-1.19,1.43-1.74,1.45l-.76,3.29c.57-.11,1.13-.05,1.63.23,1.36.75,1.67,2.77.71,4.51-.89,1.61-2.56,2.39-3.88,1.91Z"/>
  <path class="cls-1" d="m277.99,223.66l-1.53,6.61-.07.31c.44-.07.87-.15,1.3-.25l.74-2.04,1.5-4.14c-.63,0-1.26-.12-1.85-.45-.03-.02-.05-.04-.08-.06Z"/>
  <path class="cls-1" d="m153.7,244.38c-3.97,0-7.77.73-11.27,2.06h22.54c-3.5-1.33-7.3-2.06-11.27-2.06Z"/>
  <path class="cls-1" d="m161.63,294.91h-17.02c-.46,1.81-2.08,3.15-4.03,3.15s-3.58-1.34-4.03-3.15h-8.64c5.79,7.98,15.18,13.17,25.79,13.17,1.53,0,3.03-.11,4.5-.32l-3.67-7.52,6.22,1.27.89-6.6Zm-7.09,6.38c0,1.78-2.03,3.22-4.53,3.22s-4.53-1.44-4.53-3.22,2.03-3.22,4.53-3.22,4.53,1.44,4.53,3.22Z"/>
  <path class="cls-1" d="m141.46,194.11c-1.06-3.29-8-7.42-10.22-2.67-2.22,4.75,4.4,4.61,5.94,5.56.33.2.62,1.17.93,2.64l-3.65-1.28c-1.36,5.13,1.1,18.24,10.77,27.7.14,1.46-.37,3.27-2.5,5.22-5.19,4.73-2.8,6.55.6,6.79,2.29.16,4.33-4.08,4.14-9.98,2.59,2.14,5.61,4.01,9.11,5.46,3.58,1.48,6.87,1.81,9.85,1.37l-4.87-8.98c-1.01-.24-2.06-.54-3.16-.92-5.97-2.07-10.23-4.47-13.22-6.99-2.39-2.01-3.97-4.09-4.98-6.15-1.43-2.94-1.68-5.83-1.42-8.4.11-1.1.32-2.14.57-3.09l2.76.95,23.56,8.08,7.13,2.44v-.05s2.84-21.12,2.84-21.12l-.15-.03-1.24-2.27c-.95.39-2.18.31-3.3-.31-1.74-.97-2.53-2.87-1.76-4.25.38-.68,1.07-1.11,1.88-1.25l-2.99-5.47.37.08c-.18-.65-.07-1.5.37-2.29.71-1.28,1.99-1.92,2.86-1.44.87.48,1,1.91.29,3.19-.26.47-.59.85-.96,1.12l6.18,1.39.12-.89c-.57.29-1.13.36-1.58.11-.97-.54-1.02-2.3-.11-3.94.66-1.18,1.63-1.97,2.49-2.11l1.02-7.57c-6.63,2.11-12.5,6.65-16.14,13.21-.95,1.72-1.71,3.5-2.28,5.3-2.34.08-5.64.19-5.71.66-.07.47.13,4.99.25,7.6.05.99-.43,1.94-1.27,2.48-1.3.82-3.02,2.57-2.67,5.98.55,5.37,7.63,4.27,8.17,4.4,1.25.3,2.31.47,3.24.52.81,1.53,1.75,2.99,2.83,4.35l-23.46-8.22c-.16-3.15-.22-5.64-.64-6.93Zm12.32,3.68c-2.03-3.11,2.2-4.16,2.2-4.16l.85,6s-1.02,1.27-3.05-1.84Zm13.94,5.36c-.21-.39-.39-.81-.54-1.19-.28-.72-.46-1.3-.46-1.3l1.92.82s.06.06.15.16c.49.53,1.95,2.27.81,2.93-.18.58-.61,1.09-1.22,1.32-1.06.41-2.26-.12-2.67-1.18-.02-.05-.03-.11-.04-.16.84-.3,1.5-.79,2.06-1.4Zm2.58-6.48s0,0,0,0c-.11-1.48-.74-2.88-1.85-3.94,1.7.97,2.53,2.72,1.86,3.93Z"/>
  <path class="cls-1" d="m121.59,244.78c-1.17-.67-1.9-1.9-1.89-3.25.01-2.08-.73-5.3-4.86-7.38-6.51-3.28-10.41,5.57-10.94,6.09-.05.05-.09.09-.14.14.2-.96.39-1.94.54-2.94,1.33-8.6,2.69-11.03,2.69-11.03,0,0,1.15,1.03,4.06.52,1.42-.25,2.51-1.36,2.82-2.63.15,1.89.84,3.76,2.1,5.37,3.39,4.3,9.62,5.03,13.92,1.64,4.3-3.39,5.03-9.62,1.64-13.92-3.39-4.3-9.62-5.03-13.92-1.64-2.3,1.82-3.57,4.45-3.74,7.16-.22-.9-.9-1.77-2.23-2.35-3.9-1.72-8.5,2.58-9.07,13.21-.24,4.56-2.28,8.81-4.1,12.68h25.98c-1.03-.6-2.03-1.18-2.87-1.66Zm1.65-24.37c1.52-1.2,3.72-.94,4.92.58,1.2,1.52.94,3.72-.58,4.92-1.52,1.2-3.72.94-4.92-.58-1.2-1.52-.94-3.72.58-4.92Z"/>
  <path class="cls-1" d="m107.72,324.38c.92-1.11,1.54-2.14,1.96-2.98.66-1.32,1.91-2.24,3.18-2.41,2.76-.37,6.94-1.09,6.94-2.02,0-1.39,1.42-10.32.65-10.42-.55-.07-6.03.47-9.19.78-1.21.12-2.25-.46-2.72-1.55-.73-1.69-2.48-3.88-6.65-3.21-6.57,1.05-8.57,7.59-8.83,8.31-3.41,9.3,1.11,13.93,5.02,16.11.27.15.56.27.85.38-3.56,1.5-6.06,5.03-6.06,9.13,0,5.47,4.44,9.91,9.91,9.91s9.91-4.44,9.91-9.91c0-4.79-3.4-8.79-7.92-9.71,1.07-.57,2.09-1.38,2.96-2.43Zm-3.71-18.65c4.15-2.89,4.56,2.69,4.56,2.69l-7.39,1.49s-1.32-1.28,2.83-4.17Zm3.78,31.54c0,1.93-1.57,3.5-3.5,3.5s-3.5-1.57-3.5-3.5,1.57-3.5,3.5-3.5,3.5,1.57,3.5,3.5Zm-5.98-13.61c-.2-.49.15-1.15.68-1.33l6.36-2.14s1.5,1.05-2.39,4.43c-2.76,2.4-4.11.41-4.65-.95Z"/>
  <path class="cls-1" d="m272.92,245.51l5.23.93h1.41c-1.3-7.34,1.7-12.03,4.55-14.7,2.06-1.93,4.01-2.82,4.21-2.9l-.97-2.35s-2.88,1.44-6.16,4.07c-2.21,1.78-4.6,4.1-6.41,6.9l-1.87,8.05Z"/>
  <polygon class="cls-1" points="295.58 246.44 290.6 234.36 289.86 232.57 290.58 234.35 295.47 246.44 295.58 246.44"/>
  <path class="cls-1" d="m289.11,232.52s-.53.23-1.29.71c-.65.42-1.46,1.03-2.27,1.86-.39.41-.78.87-1.15,1.39-.52.74-.98,1.58-1.33,2.56-.21.57-.37,1.17-.49,1.83-.14.81-.2,1.68-.17,2.63.03.77.13,1.59.31,2.46.03.16.07.31.11.47h11.89l-5.03-12.44-.6-1.48Z"/>
  <path class="cls-1" d="m145.94,202.68c-.4,1.5-.64,3.28-.38,5.17.13.93.38,1.89.81,2.86.33.76.76,1.52,1.31,2.27.36.49.78.99,1.25,1.48.75.78,1.65,1.55,2.72,2.3.56.39,1.16.78,1.82,1.15.58.34,1.21.67,1.87,1,.68.33,1.4.66,2.17.98.78.32,1.59.63,2.46.94,1.48.51,2.85.84,4.12,1.03.85.12,1.65.18,2.42.19,1.15,0,2.21-.12,3.18-.34.62-.14,1.21-.32,1.75-.54.05-.02.09-.04.13-.06l.76-5.69.47-3.51-7.07-2.43-19.78-6.78Z"/>
  <path class="cls-1" d="m322.31,193.75c-1.03.72-2.83-.09-4.01-1.8-.14-.2-.26-.41-.37-.61l-.21.22-18.44,19.3c-.15.24-.33.46-.57.63-.01,0-.02,0-.03.02,0,0-.01,0-.02.01l-4.16,4.35-12.67,13.26c5.67-2.14,10.68-6.11,14.07-11.63,8.62,9.27,22.47,11.68,33.73,5.81l1.87,5.75c-.72,2-1.62,4.03-2.78,6-.99,1.67-1.72,3.34-2.24,4.94-2.04-2.81-5.34-4.64-9.07-4.64-4.25,0-7.96,2.37-9.86,5.86-.85,1.55-1.33,3.33-1.35,5.22h9.11c.17-.65.49-1.23.93-1.7.72-.78,1.75-1.27,2.89-1.27,1.85,0,3.38,1.27,3.82,2.98h6.76c-.05-.06-.09-.11-.14-.16-.49-.55-.86-1.08-1.12-1.58-.13-.76-.33-1.49-.6-2.19-.03-2.4,2.09-3.85,2.09-3.85,1.06-1.34,2.04-3.25,2.93-5.38l4.28,13.17h.18l-4.42-13.28-1.39-4.18-1.89-5.68-.43-1.29-1.72-5.16s.02,0,.04-.01c.28-.08,3.2-.93,7.14-.68,1.07.07,2.2.21,3.39.48.35.08.71.17,1.07.27.77.22,1.55.48,2.33.81,1.06.45,2.13,1.01,3.19,1.71,1.51,1,3,2.27,4.4,3.9,2.26,2.62,4.3,6.13,5.85,10.86,1.52,4.64,2.4,8.7,2.78,12.25h7.75c.7-5.19.5-10.82-1.07-16.72-2.6-9.8-9.41-14.27-16.55-16.15-.97-.25-1.94-.46-2.91-.62-.02-.07-.03-.13-.05-.21-.23-.72-.63-1.22-1.1-1.57,0-.03,0-.06,0-.09.23.01.45.03.68.03,1.05,0,2.06-.15,3.03-.43,4.72-1.32,8.19-5.65,8.19-10.79,0-6.11-4.89-11.07-10.97-11.2-.08,0-.16-.01-.24-.01-.4,0-.79.02-1.18.06-.82-2.29-1.94-4.51-3.39-6.61-1.86-2.7-4.12-4.96-6.63-6.79l-2.06,2.16-10.2,10.67c.13.11.26.23.39.36.25.25.49.52.7.83,1.18,1.71,1.3,3.67.27,4.39Zm-10.21,19.03c-1.13-1.64-1.01-3.68.26-4.56,1.27-.88,3.23-.27,4.36,1.37,1.13,1.64,1.01,3.68-.26,4.56-1.27.88-3.23.27-4.36-1.37Zm5.02,6.58c-1.39.96-2.89,1.19-3.35.51-.47-.67.28-2,1.66-2.95,1.39-.96,2.89-1.19,3.35-.51.47.67-.28,2-1.66,2.96Zm5.62-1.06c-.53.37-1.52-.16-2.22-1.17-.7-1.01-.84-2.13-.31-2.49.53-.37,1.52.16,2.22,1.17.7,1.01.84,2.13.31,2.49Zm3.72-4.71l.47,1.43c-1.14.3-2.19.12-2.68-.59-.73-1.06.04-2.85,1.71-4.01,1.68-1.16,3.63-1.24,4.36-.19.49.71.29,1.76-.39,2.72-2.14.32-3.46.64-3.46.64Zm11.15-8.28c-.76.52-1.8.33-2.32-.42-.52-.76-.33-1.8.42-2.32.76-.52,1.8-.33,2.32.42.52.76.33,1.8-.42,2.32Zm-6.48-.67c-.99.68-2.34.44-3.02-.55s-.44-2.34.55-3.02c.99-.68,2.34-.44,3.02.55.68.99.44,2.34-.55,3.02Zm-3.66-7.25c-.99.68-2.12.75-2.54.15-.42-.6.05-1.64,1.03-2.32.99-.68,2.12-.75,2.54-.15.42.6-.05,1.64-1.03,2.32Zm18.21-.56c.15-.02.3-.05.45-.05,2.19,0,3.96,1.77,3.96,3.96,0,2-1.49,3.64-3.42,3.91-.18.02-.35.05-.54.05-.7,0-1.35-.2-1.92-.51.51-2.35.72-4.76.62-7.17.27-.09.55-.16.85-.19Zm-8.66-9.27c.82-.57,2.16-.05,2.99,1.15.16.23.28.47.38.72.41,1.01.3,2.03-.36,2.49-.72.5-1.84.16-2.67-.75-.11-.12-.22-.26-.32-.4-.83-1.2-.84-2.64-.02-3.2Zm-3.19,5.81c.4-.28.95-.28,1.51-.07.72.26,1.48.86,2.07,1.71,1.06,1.54,1.19,3.3.27,3.93-.91.63-2.52-.1-3.58-1.64-.16-.24-.3-.48-.42-.72-.65-1.33-.63-2.68.14-3.21Zm-1.99-8.28c.9,1.3.3,3.27-1.34,4.4-1.64,1.13-3.69,1-4.59-.3-.9-1.3-.3-3.27,1.34-4.4,1.64-1.13,3.69-.99,4.59.3Zm-9,24.12c-.51.35-1.48-.18-2.18-1.2-.7-1.01-.85-2.11-.35-2.46.51-.35,1.48.18,2.18,1.2.7,1.01.85,2.11.35,2.46Z"/>
  <path class="cls-1" d="m351.96,246.44h.33s0-.05,0-.07c.01-.88-.02-1.82-.11-2.81-.08-.89-.2-1.82-.37-2.79-.19-1.08-.43-2.22-.74-3.42-.14-.56-.3-1.13-.48-1.71-.07-.24-.16-.5-.23-.75-.09-.28-.17-.56-.26-.84-.24-.72-.49-1.39-.76-2.03-.38-.92-.78-1.76-1.2-2.54-.37-.67-.75-1.29-1.15-1.87-.22-.32-.45-.62-.68-.92-.78-1-1.61-1.84-2.46-2.54-.42-.35-.84-.66-1.27-.94-.27-.18-.55-.35-.82-.51-1.2-.69-2.42-1.15-3.58-1.45-.39-.1-.78-.19-1.15-.26-.42-.08-.83-.13-1.23-.17-.74-.07-1.43-.09-2.07-.08-.02,0-.05,0-.07,0-2.23.06-3.73.54-3.73.54l.52,1.57,1.56,4.69,1.43,4.29,4.86,14.6h13.67Z"/>
  <path class="cls-1" d="m201.3,166.9c-.99,2.39-1.88,5.32-2.69,8.63-.23.92-.45,1.87-.66,2.84-.37,1.67-.73,3.41-1.07,5.21l4,.9,1.13.25,1.71.38,4.29.96s1.78-4.89,3.01-10.4c1.4-6.26,2.09-13.32-1.35-14.91-3.56-1.65-6.22.98-8.36,6.13Z"/>
  <path class="cls-1" d="m217.98,188.31l11.24,2.52c1.35-3.92,7.15-21.89,1.39-24.55-6.35-2.93-9.82,7.69-12.63,22.02Z"/>
  <path class="cls-1" d="m239.16,193.07l5.63,1.26,5.57,1.25c.36-1.02,1.32-3.87,2.22-7.32.24-.93.48-1.9.7-2.89.34-1.57.64-3.18.84-4.74.59-4.61.3-8.77-2.24-9.95-6.41-2.96-9.88,7.87-12.7,22.39Z"/>
  <path class="cls-1" d="m191.31,157.17c-3.23-1.49-5.71.52-7.74,4.74-.29.6-.57,1.26-.84,1.95-1.1,2.78-2.06,6.24-2.95,10.12-.15.65-.29,1.31-.44,1.98-.24,1.14-.48,2.32-.72,3.52l11.2,2.52c.68-1.97,3.22-9.57,3.84-15.91.07-.69.11-1.36.13-2,0-.1,0-.2,0-.3.01-.89-.03-1.73-.14-2.5-.28-1.97-.99-3.47-2.36-4.1Z"/>
  <path class="cls-1" d="m186.43,202.46c-.06-3.04-.58-5.44-1.84-6.49-.17-.14-.36-.26-.56-.36-4.38-2.02-7.63,6.37-10.15,16.57,0,.01,0,.03,0,.04,0,.01,0,.03,0,.04-.29,1.18-.57,2.38-.84,3.59-.38,1.68-.74,3.39-1.08,5.08-.03.17-.07.33-.1.5-.14.68-.27,1.36-.41,2.04-.19.97-.38,1.93-.56,2.88-.02.11-.04.23-.07.34l.04-.33c-1.2.22-2.5.33-3.91.31l3.78.67.04-.29,1.7.38,3.67.83,1.03.23.9.16,3.87.69c.22-.79,1.07-3.95,1.97-8.07.11-.49.22-.98.32-1.49.25-1.18.5-2.42.73-3.69.87-4.65,1.55-9.67,1.47-13.61Z"/>
  <path class="cls-1" d="m194.01,212.74c-.59,2.19-1.13,4.5-1.65,6.84-.77,3.51-1.47,7.08-2.11,10.4l11.13,2.5s2.69-9.62,3.94-18.65c.24-1.7.42-3.37.53-4.96.19-2.76.14-5.25-.29-7.12-.36-1.59-1-2.73-2.01-3.19-1.96-.9-3.69.28-5.23,2.77-.23.36-.45.75-.67,1.17-.51.97-.99,2.08-1.45,3.3-.78,2.05-1.51,4.41-2.19,6.94Z"/>
  <path class="cls-1" d="m221.42,206.76c-7.4-3.36-9.36,12.89-12.12,27.43l11.31,2.01c1.38-5.38,6.48-26.87.81-29.44Z"/>
  <path class="cls-1" d="m182.43,242.54c-2.92-1.33-5,.42-6.61,3.9h8.91c-.24-1.24-.62-2.27-1.19-2.99-.31-.4-.68-.71-1.11-.91Z"/>
  <path class="cls-1" d="m255.58,320.89c.25-1.19.51-2.5.74-3.85,1.1-6.36,1.67-13.75-1.21-15.06-5.11-2.31-7,6.94-8.83,17.01l9.16,1.87.15.03Z"/>
  <path class="cls-1" d="m241.24,297.35c-5.4-2.45-7.2,8.03-9.15,18.73l9.24,1.89c1.49-6.56,3.72-18.89-.1-20.62Z"/>
  <path class="cls-1" d="m223.63,294.91s0,0,0,0h-2.85c-3.13,1.71-4.61,9.47-6.09,17.62l9.28,1.9c1.47-6.75,3.26-17.88-.34-19.51Z"/>
  <path class="cls-1" d="m208,294.91h-7.2c-1.52,3.32-2.53,8.58-3.53,14.06l9.29,1.9c1.05-4.9,2.21-11.86,1.44-15.96Z"/>
  <path class="cls-1" d="m193.56,294.91h-8.37c-.99,3.06-1.75,6.99-2.5,11.08l9.31,1.9c.83-3.96,1.68-9.08,1.56-12.99Z"/>
  <path class="cls-1" d="m174.23,304.27c.28-1.37.55-2.86.78-4.37.25-1.68.46-3.38.56-4.99h-9.1c-.57,2.27-1.07,4.82-1.55,7.45l5.34,1.09,3.99.82Z"/>
  <path class="cls-1" d="m162.02,348.42l5,1.02,2.52.52c.43-1.86,1.84-8.24,2.65-14.81.26-2.11.46-4.23.54-6.23.2-5-.33-9.2-2.43-10.27-2.78-1.42-4.72.49-6.21,4.25-.28.7-.54,1.46-.79,2.28-.82,2.72-1.5,6.05-2.13,9.64-.1.56-.19,1.12-.29,1.7-.61,3.67-1.19,7.55-1.82,11.31l2.94.6Z"/>
  <path class="cls-1" d="m184.96,353.11c1.46-6.72,5.44-27.14.4-29.71-1.24-.63-2.31-.6-3.25-.04-.96.57-1.78,1.69-2.5,3.22-1.8,3.84-2.97,10.28-4.07,17.17-.38,2.38-.75,4.81-1.14,7.2l1.94.4,8.62,1.76Z"/>
  <path class="cls-1" d="m202.11,327.22c-6.69-3.43-8.52,12.41-10.9,27.17l10.58,2.16c1.52-7.09,5.26-26.8.32-29.33Z"/>
  <path class="cls-1" d="m215.62,330.14c-6.67-3.41-8.5,12.3-10.88,27.01l10.59,2.16c1.55-7.22,5.19-26.66.29-29.17Z"/>
  <path class="cls-1" d="m232.57,331.91c-6.92-3.54-8.63,13.5-11.14,28.65l10.5,2.15c1.18-5.21,5.99-28.06.64-30.8Z"/>
  <path class="cls-1" d="m269.18,174.67c-.1-.05-.2-.07-.29-.11-1.61-.63-2.96-.31-4.11.74-.57.51-1.09,1.2-1.57,2.03-1,1.74-1.83,4.11-2.56,6.87-.41,1.53-.78,3.17-1.14,4.89-.36,1.74-.71,3.55-1.05,5.39-.17.93-.34,1.86-.51,2.8l.42.09,1.44.32,9.58,2.15c.59-2.63,1.25-5.93,1.73-9.27.17-1.17.32-2.34.43-3.48.58-5.89.28-11.23-2.37-12.43Z"/>
  <path class="cls-1" d="m246.8,215.87c-.17-2.03-.79-3.78-2.06-5.03-.99-.98-2.37-1.65-4.24-1.9-8.19-1.11-9.42,13.44-12.26,28.16l9.75,2.19,1.42.25c.48-.87,8.16-14.87,7.4-23.67Z"/>
  <path class="cls-1" d="m262.56,229.4c1.45-6.59,1.75-13.73-2.48-16.72-.25-.18-.5-.34-.78-.49-1-.52-1.9-.64-2.72-.43-1.11.28-2.06,1.15-2.91,2.49-.48.76-.92,1.66-1.33,2.68-.55,1.37-1.05,2.95-1.52,4.69-1.45,5.42-2.54,12.32-3.78,18.73l11.13,2.5s2.85-6.41,4.39-13.45Z"/>
  <path class="cls-1" d="m154.67,428.58s-.02,0-.03-.01h.03s0,.01,0,.01Z"/>
  <path class="cls-1" d="m158.66,409.68c.34-1.58.67-3.17,1.01-4.74.19-.9.38-1.78.57-2.65.05-.22.09-.44.14-.66.25-1.16.49-2.28.72-3.37.74-3.43,1.38-6.4,1.82-8.38.29-1.29.49-2.16.58-2.47.12-.43.11-.84.01-1.23-.44-1.83-2.77-3.16-2.77-3.16,0,0,3.37-2.39,3.87-6.49.04-.32.06-.64.06-.98,0-1.51-.39-3.22-1.45-5.1-4.35-7.73-11.41-2.45-11.41-2.45l-.14,1.03-.57,4.21-1.22,9.04-1.6,11.89c-1.3-.91-2.59-1.83-3.88-2.75-7.01-5.02-13.63-9.76-20.22-11.64-.41-.12-.83-.27-1.26-.44l-7.05-4.45c-1.83-1.52-3.75-3.35-5.74-5.47-3.39-3.87-6.33-7.47-8.88-10.84-2.64-3.6-5.35-7.59-8.08-11.95-.45-.77-.88-1.52-1.28-2.26-6.46-12.62-6.09-34.05-6.08-34.28l.02-.91-.37-.83c-2.01-4.45-3.62-8.95-4.87-13.44h-20.17c6.57,52.68,39.24,97.41,84.9,121.27l1.77-13.13.72-5.35.43-3.2-.43,3.2-.72,5.35-1.77,13.13c3.54,1.85,7.16,3.58,10.85,5.17.7-3.32,1.57-7.44,2.47-11.68Z"/>
  <path class="cls-1" d="m187.56,438.67s-.07,0-.1-.01c.06,0,.1.01.1.01h0Z"/>
  <path class="cls-1" d="m190.83,417.26l.92-6.02.03-.2.25-1.61,3.14-20.58-2.94-3.58c3.11-4.4,4.59-12.72-4.24-13.97-8.84-1.26-8.76,11.66-8.01,13.22.62,1.28-2.71,1.85-3.92,2.01-.27.04-.44.05-.44.05l-1.05,6.82-1.92,12.49-.31,2.02-.16,1.05-.74,4.83-1.94,12.65c6.22,2.06,12.61,3.76,19.14,5.07l2.18-14.25Z"/>
  <path class="cls-1" d="m217.23,418.86l1.11-7.93.02-.13.16-1.12,2.16-15.33-1.51-4.24s-.97,1.38,1.71-3.54c2.68-4.91-1.75-9.23-8.85-8.98s-5.89,10.74-5.89,10.74l-2.22,2.23-3.12,19.78-.11.67-.09.56-1.04,6.61-2.34,14.81c5.83.85,11.77,1.39,17.79,1.62l2.21-15.75Z"/>
  <path class="cls-1" d="m416,364.36c2.28.28,4.65.21,7.15-.21.69-2.13,1.33-4.49,1.89-7.15l-8.06-.75-.97,8.11Z"/>
  <g>
    <path class="cls-1" d="m324.59,438.92c3.3,7.36,7.6,14.07,12.89,20.12,2.65-2.55,5.39-4.66,8.21-6.33-4.79-5.72-9.07-11.96-12.84-18.69-3.08,1.35-5.83,2.99-8.26,4.9Z"/>
    <polygon class="cls-1" points="201.1 446.13 198.02 441.49 197.15 442.22 192.43 446.24 183.39 453.93 203.79 450.17 201.29 446.41 201.1 446.13"/>
    <path class="cls-1" d="m51.8,381.26l8.11.97c.28-2.28.21-4.65-.21-7.15-2.13-.69-4.49-1.34-7.15-1.89l-.75,8.06Z"/>
    <path class="cls-1" d="m45.12,379.79l-12.73,8.49,7.03,6.27,13.1-11.03c-2.25-1.84-4.61-3.05-7.4-3.73Z"/>
    <path class="cls-1" d="m410.21,344.05l-6.27,7.03,11.03,13.1c1.84-2.25,3.05-4.61,3.73-7.4l-8.49-12.73Z"/>
    <path class="cls-1" d="m61.92,394.54c2.14-.83,3.96-.71,5.45.38,1.49,1.08,2.61,2.83,3.38,5.23,2.72-1.35,5.52-2.83,8.39-4.45-2.05-6.78-6.05-10.62-12-11.51-5.95-.9-11.38.89-16.31,5.36-4.92,4.47-7.13,8.61-6.63,12.42.5,3.81,3.43,8.18,8.76,13.12l8.5-7.67c-2.89-3.17-4.08-5.9-3.55-8.19.53-2.29,1.86-3.86,4.01-4.69Z"/>
    <path class="cls-1" d="m88.63,420.07c1.73-4.09,2-8.06.83-11.9-1.17-3.85-3.45-6.44-6.84-7.79-3.39-1.35-6.89-1.05-10.51.9-3.62,1.93-6.29,4.95-8.02,9.04-1.72,4.09-2,8.06-.83,11.9,1.19,3.85,3.47,6.44,6.85,7.79,3.38,1.34,6.88,1.05,10.51-.88,3.61-1.94,6.28-4.96,8.01-9.06Zm-10.23-3.98c-.64.91-1.38,1.43-2.24,1.59-.85.18-1.55-.05-2.12-.71-.57-.66-.82-1.53-.77-2.64.06-1.1.4-2.1,1.03-2.99.63-.89,1.38-1.43,2.23-1.62.85-.16,1.55.08,2.11.73.56.65.82,1.53.77,2.65-.05,1.09-.39,2.09-1.03,3Z"/>
    <path class="cls-1" d="m111.66,422.81c-4.69,4.04-8.84,7.24-12.47,9.59,1.73-5.65,2.89-9.88,3.47-12.68-2.26-1.53-4.67-2.73-7.22-3.6-6.23,8.26-12.81,16.46-19.72,24.59,1.23,1.79,3.68,3.89,7.34,6.28,3.15-3.38,6.35-7.13,9.6-11.25l-2.03,7.59,5.41-2.26,2.28-1c-2.76,6.3-4.35,10.24-4.75,11.82,3.65.32,6.74,1.06,9.27,2.21,4.62-10.32,8.83-19.17,12.64-26.55-1-1.6-2.27-3.18-3.82-4.74Z"/>
    <path class="cls-1" d="m124.02,434.1c-3.63-.35-6.91.92-9.84,3.79-2.94,2.87-4.67,6.5-5.18,10.91-.52,4.41.32,8.3,2.52,11.66,2.21,3.36,5.13,5.22,8.75,5.57,3.62.35,6.9-.91,9.84-3.78,2.93-2.87,4.65-6.52,5.17-10.93.52-4.41-.32-8.3-2.52-11.66-2.19-3.37-5.11-5.23-8.74-5.57Zm.33,16.25c-.36,1.05-.93,1.76-1.71,2.15-.76.41-1.51.38-2.23-.09-.73-.47-1.22-1.24-1.47-2.32-.25-1.08-.2-2.13.16-3.16.36-1.03.92-1.76,1.69-2.18.77-.39,1.51-.36,2.23.11.72.47,1.21,1.24,1.48,2.33.26,1.06.21,2.12-.15,3.17Z"/>
    <path class="cls-1" d="m176.7,452.9c-8.97-1.88-16.77-3.17-23.38-3.88l-1.37,11.08,5.77,1.97c-1.16,5.44-2.96,11.29-5.4,17.56,2.57,1.21,5.27,2.73,8.1,4.55,1.94-5.89,3.74-12.46,5.41-19.72,2.01.88,4.52,1.75,7.53,2.63,1.08-3.14,2.19-7.87,3.34-14.2Z"/>
    <path class="cls-1" d="m190.24,461.66c.1,2.79-.14,5.67-.72,8.63-.59,2.97-2.08,4.26-4.49,3.87-2.41-.39-3.23-1.98-2.46-4.79.77-2.8,1.93-5.43,3.48-7.86-2.23-2.57-4.11-4.44-5.66-5.62-2.25,1.71-4.28,5.76-6.09,12.13-1.81,6.38-1.29,11.45,1.58,15.24,2.87,3.78,6.04,5.62,9.52,5.51,3.48-.11,6.23-1.45,8.27-4.02,2.04-2.57,3.41-6,4.13-10.3.71-4.29,1.14-8.21,1.27-11.74-2.65-.93-5.58-1.28-8.81-1.06Z"/>
    <path class="cls-1" d="m223.05,477.28c-.43-6.67-.25-12.62.55-17.85l.03-.68c-2.38.15-5.91.98-10.62,2.47-.06,10.27.34,21.11,1.21,32.53,6.09-3.03,12.85-4.42,20.26-4.18-.41-4.04-.65-8.23-.7-12.54-4.22-.55-7.8-.47-10.73.25Z"/>
    <path class="cls-1" d="m239.67,460.22c-.76,8.24-1.88,17.54-3.35,27.9l4.77,1.31,4.59,1.93c.08-1.19.08-3.58,0-7.19l5.95-.06,2.94,6.82,8.55-5.82c-4.61-8.02-8.8-16.3-12.56-24.85l-10.88-.04Zm5.5,15.64l.11-7.93,3.38,7.92h-3.49Z"/>
    <path class="cls-1" d="m304.52,465.76c-.28-4.09-1.93-7.77-4.94-11.04-3.02-3.26-6.51-5.15-10.49-5.67-3.98-.53-7.29.48-9.92,3.01-2.63,2.53-3.8,5.85-3.52,9.94.27,4.1,1.9,7.78,4.92,11.03,3.01,3.26,6.51,5.15,10.5,5.68,3.63.46,6.7-.33,9.19-2.38l6.47,7.08,6.05-9.8-8.37-4.67c.14-1,.18-2.06.11-3.19Zm-12.27-.67c-.18.85-.69,1.39-1.52,1.64s-1.74.12-2.72-.39c-.98-.51-1.75-1.23-2.3-2.18-.55-.94-.74-1.85-.56-2.71.2-.84.71-1.38,1.54-1.62.82-.24,1.73-.11,2.73.39.98.5,1.75,1.22,2.31,2.17.56.96.73,1.85.52,2.7Z"/>
    <path class="cls-1" d="m320.56,436.3c-2.66.89-5.2,2.41-7.61,4.57,1.79,2.14,3.37,4.56,4.72,7.26,1.36,2.7.96,4.64-1.18,5.81-2.14,1.17-3.76.41-4.88-2.27-1.11-2.69-1.8-5.47-2.07-8.35-3.33-.66-5.97-.98-7.91-.96-.73,2.73.15,7.17,2.63,13.32,2.48,6.15,6.01,9.84,10.59,11.06,4.58,1.23,8.22.73,10.89-1.48,2.68-2.22,4.03-4.97,4.07-8.25.03-3.28-.99-6.84-3.05-10.67-2.07-3.83-4.13-7.18-6.2-10.05Z"/>
    <path class="cls-1" d="m324,424.09c-1.29.28-2.38,1.06-3.27,2.34-.89,1.29-1.32,2.7-1.29,4.24.03,1.54.51,2.76,1.44,3.67.93.89,2.04,1.19,3.33.92,1.29-.28,2.38-1.06,3.27-2.34.89-1.29,1.32-2.7,1.29-4.24-.03-1.54-.51-2.76-1.42-3.65-.94-.9-2.05-1.21-3.34-.93Z"/>
    <path class="cls-1" d="m379.54,412.79c-5.8.48-10.04.59-12.74.32,1.76-5.48,1.17-9.62-1.76-12.43-2.93-2.81-6.59-2.9-10.99-.26-4.4,2.63-8.06,7.13-10.99,13.49.5.53.99,1.05,1.48,1.57-5.17,5.52-10.38,9.8-15.63,12.82,7.13,7.53,13.43,15.23,18.89,23.11,6.82-1.79,12.44-5.39,16.85-10.8-2.32-2.21-4.69-4.64-7.12-7.31-3.05,3.5-5.87,5.83-8.44,7.01l-1.13-1.66c2.32-1.16,5.11-3.52,8.36-7.08-1.64-2.11-3.43-4.25-5.37-6.43-3.31,3.53-6.03,5.79-8.17,6.78l-.94-1.14c2.34-1.62,4.97-4.21,7.9-7.77-1.62-2.34-3.09-4.57-4.43-6.71,9.87,10.42,17.48,17.66,22.81,21.73,1.63-3.71,3.43-7.22,5.39-10.53-4.21-2.58-7.45-4.78-9.72-6.61,5.08.97,10.76,1.52,17.07,1.65-.66-3.11-1.11-6.35-1.34-9.75Zm-21.85,3.47l-4.9-4.26c2.55-3.9,4.7-5.17,6.47-3.81,1.77,1.37,1.24,4.06-1.57,8.07Z"/>
    <path class="cls-1" d="m366.89,392.5c5.28,6.37,11.05,13.75,17.33,22.13l4.3-2.44,4.61-1.88c-.78-.9-2.47-2.6-5.08-5.09l4.17-4.24,6.9,2.76,1.94-10.16c-8.93-2.42-17.74-5.33-26.44-8.73l-7.73,7.65Zm17.4,4.72l-2.46,2.47-5.52-5.69,7.98,3.22Z"/>
    <path class="cls-1" d="m405.09,364.53c-2.74-1.61-7.09,1.35-13.04,8.86-1.97,1.75-2.02-2.06-.16-11.41-2.22-1.36-4.84-2.73-7.87-4.1-4.33,13.96-3.8,22.25,1.6,24.88,5.4,2.63,9.71,1.33,12.92-3.91,2.94-3.43,2.51-.25-1.27,9.55,4.02,1.04,8.01,2.17,11.97,3.39.77-7.01.95-12.91.55-17.69-.4-4.78-1.97-7.97-4.71-9.58Z"/>
  </g>
  <path class="cls-1" d="m71.19,115.44c-3.49-3.66-6.91-7.59-10.25-11.79-4.58,2.68-8.03,5.49-10.36,8.44-5.51-6.23-9.87-12.22-13.08-17.96l-.48-.69c-2.22,1.96-5.07,5.47-8.56,10.53,7.77,10.14,16.44,20.49,26,31.05,3.68-7.62,9.26-14.14,16.72-19.56Z"/>
  <path class="cls-1" d="m76.03,112.89l6.19-.13c-.5-1.39-1.72-4.12-3.64-8.17l6.73-3.07,6.79,6.27,6.78-10.94c-9.3-6.78-18.24-14.08-26.84-21.9l-12.38,5.45c3.3,9.75,6.73,20.89,10.29,33.41l6.08-.92Zm1.74-19.27l-3.96,1.78-3.89-9.07,7.84,7.29Z"/>
  <path class="cls-1" d="m129.03,92.43c-1.29-5.6-2.93-11.52-4.91-17.73l6.41,7.37,1.43-7.15.56-3.05c4.57,7.24,7.53,11.61,8.88,13.13,2.88-3.54,5.79-6.21,8.74-8.01-7.42-11.95-13.61-22.46-18.57-31.52-2.34-.09-4.86.13-7.54.64.9,7.64,1.3,14.15,1.2,19.53-4.62-5.72-8.17-9.85-10.66-12.41-3.15,1.27-6.07,2.91-8.74,4.93,4.17,12.18,8.04,24.67,11.61,37.46,2.71-.02,6.57-1.09,11.58-3.19Z"/>
  <path class="cls-1" d="m176.47,77.62c-1.37-3.74-2.67-7.77-3.91-12.08-5.33,2.21-9.76,3.26-13.28,3.16l-.34-2.48c3.23-.01,7.64-1.11,13.23-3.28-.66-3.26-1.48-6.63-2.44-10.13-5.64,2.11-9.92,3.13-12.85,3.04l-.42-1.79c3.5-.52,7.87-1.95,13.1-4.3-.59-4.04-1.05-7.83-1.38-11.37-8.92,3.37-17.17,5.29-24.77,5.77,3.8,12.33,6.56,24.39,8.31,36.2,8.59,1.77,16.84.86,24.75-2.73Z"/>
  <path class="cls-1" d="m192.76,41.09c1.58.44,3.23.21,4.96-.69,1.73-.9,3.02-2.21,3.88-3.92.86-1.71,1.04-3.33.55-4.85-.51-1.53-1.56-2.52-3.14-2.96-1.58-.44-3.23-.21-4.96.69-1.73.9-3.02,2.21-3.88,3.92-.86,1.71-1.04,3.34-.55,4.87.51,1.52,1.56,2.49,3.13,2.94Z"/>
  <path class="cls-1" d="m186.94,74.92c5.25,2.56,10.23,2.31,14.91-.75,4.69-3.06,6.79-7.17,6.3-12.33-.48-5.16-1.89-11.24-4.23-18.22-4.03.15-7.95.93-11.77,2.34,1.08,4.99,1.63,8.33,1.63,9.99,0,1.67-1.2,2.44-3.63,2.33-2.43-.11-4.89-1.46-7.38-4.04-2.31,3.45-4.96,6.46-7.93,9.04,2.81,5.2,6.84,9.08,12.09,11.63Z"/>
  <path class="cls-1" d="m221.75,71.54c4.3,2.57,8.57,3.07,12.82,1.5,4.25-1.57,7.24-4.75,8.98-9.56,1.72-4.8,1.68-9.82-.12-15.04-1.81-5.22-4.85-9.12-9.13-11.69-4.28-2.59-8.55-3.09-12.8-1.52-4.26,1.58-7.25,4.77-8.97,9.57-1.74,4.8-1.71,9.81.1,15.03,1.81,5.22,4.85,9.12,9.13,11.7Zm1.88-22.62c.65-.86,1.5-1.22,2.56-1.08,1.06.13,2.03.74,2.92,1.8.87,1.05,1.38,2.26,1.54,3.63.16,1.37-.09,2.48-.75,3.33-.63.87-1.48,1.24-2.55,1.11-1.07-.13-2.04-.73-2.9-1.8-.87-1.07-1.38-2.28-1.53-3.63-.16-1.35.08-2.47.71-3.36Z"/>
  <path class="cls-1" d="m260.52,61.12c2.49,5.93,5.84,12.2,10.04,18.82,2.76-2.82,5.82-5.52,9.17-8.1-4.49-5.68-7.52-10-9.11-12.97,6.89-1.95,10.78-5.41,11.67-10.38.89-4.97-1.54-8.82-7.29-11.57-5.76-2.74-12.94-3.44-21.54-2.09-4.57,19.44-7.14,33.63-7.73,42.58,4.96-.87,9.84-1.42,14.62-1.67-.23-6.14-.18-11.01.16-14.62Zm1.61-17.54c5.8-.05,8.6,1.31,8.4,4.08-.2,2.77-3.34,4.08-9.44,3.93l1.04-8.01Z"/>
  <path class="cls-1" d="m312.99,76.61c3.16.9,7.28,1.11,12.38.63,5.1-.48,8.6-3.06,10.5-7.74,1.9-4.68.47-9-4.28-12.97-4.76-3.97-11.48-6.18-20.17-6.65-8.49,18.07-13.95,31.42-16.37,40.06,5.04.18,9.92.64,14.65,1.4,1.08-6.32,2.18-11.24,3.29-14.74Zm5.09-16.36c5.68,1.15,8.14,3.06,7.37,5.73-.77,2.67-4.12,3.3-10.05,1.89l2.67-7.62Z"/>
  <path class="cls-1" d="m335.61,106.86c3.51-8.59,7.88-16.92,13.1-24.99-3.28-2.6-6.68-4.68-10.19-6.23-6.18,7.91-11.06,16.54-14.64,25.87,4.35,1.43,8.26,3.22,11.74,5.35Z"/>
  <path class="cls-1" d="m346.8,75.31c1.93.23,3.74-.12,5.41-1.05,1.68-.93,2.74-2.16,3.19-3.69.44-1.55.14-2.96-.91-4.21-1.05-1.26-2.55-2-4.48-2.23-1.93-.23-3.74.11-5.41,1.04-1.68.93-2.74,2.17-3.2,3.71-.43,1.54-.13,2.94.93,4.19,1.05,1.26,2.54,2,4.48,2.23Z"/>
  <path class="cls-1" d="m360.53,94.62c-5.53,2.43-14.19,7.19-26,14.3l-.18.26c9.86,2.75,18.96,7.5,27.3,14.26,3.71-3.96,7.94-7.85,12.67-11.69-3.14-2.78-6.64-5.1-10.52-6.98l25.18-11.51c-9.58-7.54-19.47-13.43-29.67-17.65-3.19,2.63-6.73,7.01-10.61,13.13,4.69,1.96,8.63,3.92,11.83,5.89Z"/>
  <path class="cls-1" d="m379.68,110.7c4.36,2.61,7.99,5.12,10.87,7.52-5.82,1.61-15.08,5.09-27.78,10.44l-.22.23c9.37,4.13,17.7,10.13,24.98,18.01,4.24-3.38,8.98-6.64,14.21-9.75-2.71-3.2-5.85-6-9.41-8.42l26.56-7.8c-8.4-8.84-17.35-16.07-26.84-21.71-3.53,2.15-7.66,5.98-12.38,11.48Z"/>
  <path class="cls-1" d="m393.43,152.4l.97,6.12c1.31-.69,3.85-2.26,7.6-4.71l3.96,6.25-5.3,7.58,11.76,5.24c5.46-10.13,11.49-19.98,18.08-29.55l-7.08-11.53c-9.22,4.59-19.79,9.49-31.72,14.71l1.73,5.9Zm25.5-9.63l-6.16,8.76-2.29-3.68,8.46-5.07Z"/>
  <path class="cls-1" d="m226.76,121.61c-3.27-2.33-6.71-1.45-9.98,2.75-1.43,1.84-2.83,4.32-4.16,7.44-.16.38-.32.77-.48,1.16-.06.15-.12.3-.18.45-.63,1.61-1.25,3.38-1.85,5.3-.06.18-.11.35-.17.53l1.83.49,14.44,3.85s.12-.34.3-.93c.09-.28.19-.62.31-1.01.46-1.52,1.08-3.79,1.56-6.29.05-.25.1-.5.14-.76.04-.23.08-.46.12-.69.6-3.6.8-7.44-.23-10.02-.38-.95-.92-1.73-1.67-2.27Z"/>
  <path class="cls-1" d="m248.32,126.77c-4.46-3.18-9.25-.38-13.46,8.66-.07.14-.13.3-.2.44-.16.36-.32.72-.48,1.1-.75,1.77-1.49,3.73-2.19,5.91-.11.33-.21.67-.32,1.01-.05.17-.11.33-.16.51l16.27,4.34s.01-.04.03-.09c.04-.13.14-.41.27-.82.3-.95.8-2.59,1.28-4.56.17-.71.35-1.47.51-2.25.01-.06.02-.12.04-.18,1.08-5.34,1.58-11.82-1.57-14.07Z"/>
  <path class="cls-1" d="m268.12,133c-4.65-3.32-9.67-.13-14.01,9.88-.02.04-.03.08-.05.12-.33.76-.65,1.56-.97,2.4-.4,1.05-.8,2.17-1.18,3.35-.18.55-.36,1.11-.54,1.69-.02.07-.04.13-.06.2h0s.82.22.82.22l6.08,1.62,5.78,1.54,3.59.96s.04-.11.1-.3c.12-.37.34-1.06.62-1.99,0,0,0-.01,0-.01.02-.07.04-.14.06-.22.21-.74.45-1.6.69-2.55,1.4-5.62,2.8-14.23-.93-16.9Z"/>
  <path class="cls-1" d="m199.9,104.09l-2.03,4.74,28.4,7.1s-.09,0-.14,0l3.43.83,24.33,6.08,32.14,8.03-8.58,18.69-2.2,4.79,17.83,4.28-.92,3.96,9.3,2.09,8.3-22.92c-5.45-3.51-11.13-6.7-17.01-9.56l1.27-5.09-7.75-1.9-12.98-3.17-73.39-17.95Z"/>
  <path class="cls-1" d="m70.2,269.43c0-1.51-1.91-4.48-5.17-7.12-1.83-1.51-3.62-2.12-6.64-2.12h-.28l-14.21.12c.73,7.17,1.22,13.39,1.22,18.73,0,2.36-.04,5.5-.12,9.36h8.18l.2-8.83,1.55.12c1.83,3.38,4.11,6.31,6.88,9.04l7.73-1.18c-2.69-3.13-4.72-6.31-6.02-9.77,4.4-3.46,6.68-5.98,6.68-8.35Zm-16.89,6.84l-.57-9.65c4.56.61,6.96,2.36,6.96,3.95,0,1.71-2.32,4.19-6.39,5.7Z"/>
  <path class="cls-1" d="m73.45,288.44c3.01-.08,5.09-.08,6.15-.08,3.13,0,6.72.2,10.79.53l2.12-6.8-9.57-.57.24-4.19c1.75-.08,2.89-.16,3.38-.16,1.38,0,3.05.16,5.09.45l1.1-6.84c-2.32.2-4.07.37-5.29.37-1.42,0-3.01-.08-4.72-.2l.16-4.07c2.2-.16,3.91-.29,5.17-.29.98,0,2.65.12,4.97.33l-1.91-6.88h-17.75c.81,4.93.85,8.71.85,11.32v1.26c0,5.09,0,10.34-.77,15.84Z"/>
  <path class="cls-1" d="m120.84,279.77c0-1.83.16-3.79.33-5.94-2.89-1.22-5.66-2.2-8.35-2.97.16,3.18.24,6.35.24,9.49h-.29c-1.71,0-3.05-.33-4.48-1.14-2.57-1.47-3.99-3.42-3.99-4.23,0-1.79,4.72-5.74,15.1-9.73l-5.01-5.86c-4.8.81-8.75,2.65-12.29,5.74-4.89,4.23-6.92,8.51-6.92,10.83,0,1.79,2,5.66,5.66,8.92,2.89,2.57,4.84,3.58,7.37,3.58,2.36,0,4.4-.04,6.23-.04h6.88c-.29-3.42-.49-6.31-.49-8.63Z"/>
  <path class="cls-1" d="m133.9,283.15c2.08-.08,3.62-.12,4.6-.12,1.1,0,2.69.04,4.76.12l1.95,5.41,10.3-.53-14-28.01h-6.39c-3.87,9.61-8.02,18.97-12.54,28.13l9.49.37,1.83-5.37Zm5.33-13.07l2.85,6.64-5.94-.61,3.09-6.03Z"/>
  <path class="cls-1" d="m156.61,288.4c5.46-.2,9.53-.33,12.13-.33s6.55.12,11.89.33l2.48-9.4c-3.42.57-6.8.86-10.1.86-.65,0-1.3-.04-1.95-.04,3.38-6.23,7.37-12.5,12.09-18.93l-.24-.69c-5.46.16-10.06.33-13.72.33-2.16,0-5.78-.08-10.91-.24l-2.57,9.28c4.11-.61,8.18-1.02,12.34-1.18-3.75,6.39-7.65,12.82-11.72,19.38l.28.65Z"/>
  <path class="cls-1" d="m210.02,288.4l2.48-9.4c-3.42.57-6.8.86-10.1.86-.65,0-1.3-.04-1.95-.04,3.38-6.23,7.37-12.5,12.09-18.93l-.24-.69c-5.46.16-10.06.33-13.72.33-2.16,0-5.78-.08-10.91-.24l-2.56,9.28c4.11-.61,8.18-1.02,12.34-1.18-3.75,6.39-7.65,12.82-11.72,19.38l.28.65c5.46-.2,9.53-.33,12.13-.33s6.55.12,11.89.33Z"/>
  <path class="cls-1" d="m231.96,260.03h-6.39c-3.87,9.61-8.02,18.97-12.54,28.13l9.49.37,1.83-5.37c2.08-.08,3.62-.12,4.6-.12,1.1,0,2.69.04,4.76.12l1.95,5.41,10.3-.53-14-28.01Zm-5.37,16.08l3.09-6.03,2.85,6.64-5.94-.61Z"/>
  <path class="cls-1" d="m261.59,260.15c.45,4.89.73,9.4.73,13.68s-.29,9.24-.77,14.62c2.73-.04,4.32-.08,4.76-.08,1.1,0,2.69.04,4.76.04-.37-2.24-.53-4.48-.53-6.76v-.77c1.47.16,2.81.24,4.03.24,3.22,0,5.13-.29,6.51-1.55,2.28-2.08,4.32-6.31,4.32-10.1,0-2-1.83-4.76-5.13-7.29-1.95-1.51-3.18-1.71-4.89-1.87-.57-.04-2.85-.16-6.76-.16h-7.04Zm8.79,14.29c0-3.46.16-6.96.45-10.5,4.97,2.44,7.37,3.74,7.37,5.58,0,1.55-2.73,5.29-7.82,6.76v-1.83Z"/>
  <path class="cls-1" d="m288.09,260.15c.33,6.07.61,11.56.61,16.49,0,3.26-.12,7.17-.28,11.72,2.65-.04,4.32-.04,4.97-.04.41,0,1.83,0,4.23.04-.37-3.62-.57-7.21-.57-10.83,0-5.58.45-11.32,1.18-17.38h-10.14Z"/>
  <path class="cls-1" d="m327.53,260.19c-5.46.16-10.06.33-13.72.33-2.16,0-5.78-.08-10.91-.24l-2.56,9.28c4.11-.61,8.18-1.02,12.33-1.18-3.75,6.39-7.65,12.82-11.72,19.38l.29.65c5.46-.2,9.53-.33,12.13-.33s6.55.12,11.89.33l2.48-9.4c-3.42.57-6.8.86-10.1.86-.65,0-1.3-.04-1.95-.04,3.38-6.23,7.37-12.5,12.09-18.93l-.24-.69Z"/>
  <path class="cls-1" d="m356.92,260.19c-5.46.16-10.06.33-13.72.33-2.16,0-5.78-.08-10.91-.24l-2.56,9.28c4.11-.61,8.18-1.02,12.33-1.18-3.75,6.39-7.65,12.82-11.72,19.38l.29.65c5.46-.2,9.53-.33,12.13-.33s6.55.12,11.89.33l2.48-9.4c-3.42.57-6.8.86-10.1.86-.65,0-1.3-.04-1.95-.04,3.38-6.23,7.37-12.5,12.09-18.93l-.24-.69Z"/>
  <path class="cls-1" d="m376.58,260.03h-6.39c-3.87,9.61-8.02,18.97-12.54,28.13l9.49.37,1.83-5.37c2.08-.08,3.62-.12,4.6-.12,1.1,0,2.69.04,4.76.12l1.95,5.41,10.3-.53-14-28.01Zm-5.37,16.08l3.09-6.03,2.85,6.64-5.94-.61Z"/>
  <path class="cls-1" d="m404.18,263.97l-7.12-3.95c-5.25,1.67-8.02,4.93-8.02,8.63,0,2.65,1.47,4.11,3.05,6.15,1.14,1.46,2.04,2.73,2.04,4.44,0,2.32-1.95,4.4-5.17,4.97l.04.45,7.78,4.36c4.93-2.12,7.37-5.05,7.37-9.08,0-2.32-.77-3.79-2.16-5.5-1.42-1.75-2.77-3.01-2.77-4.84,0-2.08,1.67-4.07,4.97-5.62Z"/>
  <g>
    <path class="cls-1" d="m369.89,197.67c-2.95-19.51-20.83-29.73-26.31-32.44l-2.9,2.37s-.02-.02-.03-.04l-.29.3-1.36,1.12s.07.03.21.09l-1.24,1.3s.11.05.16.07c.77.34,2.39,1.11,4.51,2.32,1.08.62,2.28,1.35,3.57,2.21,1.93,2.12,4.2,4.96,6.75,8.75,3.69,5.48,7.96,12.93,12.64,23.07,1.37,2.98,2.78,6.2,4.22,9.65,2.27,13.39,4.45,22.95,6.37,29.98h6.02c-3.67-10.91-9.35-29.12-12.33-48.76Z"/>
    <path class="cls-1" d="m378.79,196.32c3.38,22.35,9.36,39.65,12.58,48.94.42,1.22.15.4.41,1.17h18.7c-.87-20.25-7.31-63.18-43.29-100.55l-15.92,13.05c6.17,3.05,23.95,13.76,27.52,37.39Z"/>
  </g>
</svg>