<svg width="204" height="46" viewBox="0 0 204 46" fill="none" xmlns="http://www.w3.org/2000/svg">
<g id="TripAdvisor_Logo 1" clip-path="url(#clip0_362_92364)">
<g id="Group">
<path id="Vector" d="M202.581 30.98C201.95 30.98 201.438 31.5162 201.438 32.1763C201.438 32.8364 201.95 33.3725 202.581 33.3725C203.212 33.3725 203.725 32.8364 203.725 32.1763C203.724 31.5162 203.212 30.98 202.581 30.98ZM202.581 33.1828C202.05 33.1828 201.619 32.7301 201.619 32.1763C201.619 31.6198 202.052 31.1697 202.581 31.1697C203.113 31.1697 203.546 31.6224 203.546 32.1763C203.546 32.7301 203.113 33.1828 202.581 33.1828ZM202.953 31.9714C202.953 31.7539 202.806 31.6249 202.588 31.6249H202.223V32.715H202.402V32.3204H202.598L202.787 32.715H202.98L202.772 32.28C202.883 32.2269 202.953 32.1206 202.953 31.9714ZM202.581 32.151H202.405V31.7894H202.581C202.702 31.7894 202.775 31.8526 202.775 31.9689C202.775 32.0878 202.7 32.151 202.581 32.151ZM64.8325 18.8733V15.9801H60.5932V33.1929H64.8325V22.8719C64.8325 21.0029 65.9781 20.0848 67.7643 20.0848H70.0845V15.9802H68.1026C66.5509 15.9801 65.2023 16.8273 64.8325 18.8733ZM74.0556 9.17188C72.6054 9.17188 71.4936 10.3707 71.4936 11.8881C71.4936 13.3701 72.6054 14.5689 74.0556 14.5689C75.5057 14.5689 76.6175 13.3701 76.6175 11.8881C76.6175 10.3706 75.5057 9.17188 74.0556 9.17188ZM71.9407 33.193H76.1704V15.9801H71.9407V33.193ZM96.318 24.5865C96.318 29.5005 92.5113 33.4838 87.8152 33.4838C85.9202 33.4838 84.2018 32.8339 82.8241 31.7362V38.2461H78.5945V15.9801H82.8241V17.4368C84.2018 16.3392 85.9202 15.6892 87.8152 15.6892C92.5113 15.6892 96.318 19.6725 96.318 24.5865ZM92.0618 24.5865C92.0618 21.9184 89.9929 19.7534 87.443 19.7534C84.8931 19.7534 82.8242 21.9184 82.8242 24.5865C82.8242 27.2547 84.8931 29.4196 87.443 29.4196C89.9929 29.4196 92.0618 27.2572 92.0618 24.5865ZM169.832 23.0767L167.364 22.3685C165.74 21.9259 165.109 21.4049 165.109 20.5071C165.109 19.6321 165.998 19.02 167.27 19.02C168.481 19.02 169.43 19.8496 169.43 20.9118V21.0104H173.329V20.9118C173.329 17.7883 170.895 15.6892 167.27 15.6892C163.681 15.6892 161.073 17.7858 161.073 20.6765C161.073 22.9249 162.496 24.6193 164.981 25.3224L167.345 25.9977C169.14 26.5186 169.808 27.0953 169.808 28.1297C169.808 29.2198 168.843 29.9532 167.407 29.9532C165.911 29.9532 164.904 28.9617 164.904 27.4898V27.3912H160.766V27.4898C160.766 31.0204 163.482 33.4888 167.374 33.4888C171.122 33.4888 173.844 31.0786 173.844 27.7605C173.844 26.1317 173.148 24.0023 169.832 23.0767ZM111.322 15.9801H115.552V33.1929H111.322V31.7361C109.945 32.8338 108.226 33.4838 106.331 33.4838C101.635 33.4838 97.8287 29.5005 97.8287 24.5864C97.8287 19.6724 101.635 15.6892 106.331 15.6892C108.226 15.6892 109.945 16.3391 111.322 17.4367V15.9801ZM111.322 24.5865C111.322 21.9158 109.253 19.7534 106.704 19.7534C104.154 19.7534 102.085 21.9184 102.085 24.5865C102.085 27.2547 104.154 29.4196 106.704 29.4196C109.256 29.4196 111.322 27.2572 111.322 24.5865ZM130.825 9.85471H135.054V33.1955H130.825V31.7387C129.447 32.8363 127.729 33.4863 125.834 33.4863C121.138 33.4863 117.331 29.503 117.331 24.589C117.331 19.675 121.138 15.6917 125.834 15.6917C127.729 15.6917 129.447 16.3417 130.825 17.4393V9.85471ZM130.825 24.5865C130.825 21.9184 128.756 19.7534 126.206 19.7534C123.656 19.7534 121.587 21.9184 121.587 24.5865C121.587 27.2547 123.654 29.4196 126.206 29.4196C128.756 29.4196 130.825 27.2572 130.825 24.5865ZM154.692 33.193H158.922V15.9801H154.692V33.193ZM156.807 9.17188C155.357 9.17188 154.245 10.3707 154.245 11.8881C154.245 13.3701 155.357 14.5689 156.807 14.5689C158.257 14.5689 159.369 13.3701 159.369 11.8881C159.369 10.3706 158.257 9.17188 156.807 9.17188ZM192.126 24.5865C192.126 29.5005 188.319 33.4838 183.623 33.4838C178.927 33.4838 175.12 29.5005 175.12 24.5865C175.12 19.6725 178.927 15.6892 183.623 15.6892C188.319 15.6892 192.126 19.6725 192.126 24.5865ZM188.242 24.5865C188.242 21.9184 186.173 19.7534 183.623 19.7534C181.073 19.7534 179.004 21.9184 179.004 24.5865C179.004 27.2547 181.07 29.4196 183.623 29.4196C186.173 29.4196 188.242 27.2572 188.242 24.5865ZM62.6669 9.85471H46.442V13.8026H52.4481V33.1929H56.6632V13.8026H62.6694V9.85471H62.6669ZM144.72 28.4788L140.957 15.9802H136.514L142.158 33.193H147.248L152.925 15.9802H148.483L144.72 28.4788ZM198.323 18.8733V15.9801H194.083V33.1929H198.323V22.8719C198.323 21.0029 199.468 20.0848 201.254 20.0848H203.575V15.9802H201.593C200.041 15.9801 198.695 16.8273 198.323 18.8733Z" fill="black"/>
<path id="Vector_2" d="M21.9781 45.9998C33.9249 45.9998 43.6097 35.8657 43.6097 23.3646C43.6097 10.8636 33.9249 0.729492 21.9781 0.729492C10.0313 0.729492 0.346497 10.8636 0.346497 23.3646C0.346497 35.8657 10.0313 45.9998 21.9781 45.9998Z" fill="#34E0A1"/>
<path id="Vector_3" d="M35.3386 18.9486L37.9489 15.9769H32.1603C29.2624 13.9056 25.7627 12.6992 21.9777 12.6992C18.1976 12.6992 14.7076 13.9082 11.8145 15.9769H6.01141L8.62171 18.9486C7.02172 20.4761 6.01869 22.6764 6.01869 25.1195C6.01869 29.73 9.59097 33.468 13.9971 33.468C16.0901 33.468 17.9971 32.6233 19.4207 31.2424L21.9778 34.1559L24.5349 31.2449C25.9585 32.6258 27.863 33.468 29.9561 33.468C34.3622 33.468 37.9392 29.73 37.9392 25.1195C37.9416 22.6739 36.9386 20.4736 35.3386 18.9486ZM13.9994 30.7694C11.0169 30.7694 8.60001 28.2404 8.60001 25.1195C8.60001 21.9986 11.0169 19.4696 13.9994 19.4696C16.9819 19.4696 19.3988 21.9986 19.3988 25.1195C19.3988 28.2404 16.9819 30.7694 13.9994 30.7694ZM21.9802 24.9551C21.9802 21.2374 19.3965 18.0457 15.9861 16.6825C17.8303 15.8757 19.8532 15.4281 21.9777 15.4281C24.1022 15.4281 26.1276 15.8757 27.9717 16.6825C24.5639 18.0482 21.9802 21.2374 21.9802 24.9551ZM29.9585 30.7694C26.976 30.7694 24.559 28.2404 24.559 25.1195C24.559 21.9986 26.976 19.4696 29.9585 19.4696C32.9411 19.4696 35.3579 21.9986 35.3579 25.1195C35.3579 28.2404 32.941 30.7694 29.9585 30.7694ZM29.9585 22.1554C28.3947 22.1554 27.1282 23.4806 27.1282 25.117C27.1282 26.7533 28.3947 28.0785 29.9585 28.0785C31.5222 28.0785 32.7887 26.7533 32.7887 25.117C32.7887 23.4832 31.5222 22.1554 29.9585 22.1554ZM16.8296 25.1195C16.8296 26.7558 15.5632 28.081 13.9994 28.081C12.4357 28.081 11.1692 26.7558 11.1692 25.1195C11.1692 23.4832 12.4357 22.1579 13.9994 22.1579C15.5632 22.1554 16.8296 23.4832 16.8296 25.1195Z" fill="black"/>
</g>
</g>
<defs>
<clipPath id="clip0_362_92364">
<rect width="203.378" height="45.2703" fill="white" transform="translate(0.346069 0.729492)"/>
</clipPath>
</defs>
</svg>
